%TF.GenerationSoftware,KiCad,Pcbnew,9.0.7*%
%TF.CreationDate,2026-03-11T00:30:47+02:00*%
%TF.ProjectId,amstrad-pc1640-pcmm-adapter,616d7374-7261-4642-9d70-63313634302d,rev?*%
%TF.SameCoordinates,Original*%
%TF.FileFunction,Copper,L2,Bot*%
%TF.FilePolarity,Positive*%
%FSLAX46Y46*%
G04 Gerber Fmt 4.6, Leading zero omitted, Abs format (unit mm)*
G04 Created by KiCad (PCBNEW 9.0.7) date 2026-03-11 00:30:47*
%MOMM*%
%LPD*%
G01*
G04 APERTURE LIST*
%TA.AperFunction,ComponentPad*%
%ADD10R,1.600000X1.600000*%
%TD*%
%TA.AperFunction,ComponentPad*%
%ADD11O,1.600000X1.600000*%
%TD*%
%TA.AperFunction,ComponentPad*%
%ADD12O,3.000000X3.000000*%
%TD*%
%TA.AperFunction,ComponentPad*%
%ADD13R,1.700000X1.700000*%
%TD*%
%TA.AperFunction,ComponentPad*%
%ADD14O,1.700000X1.700000*%
%TD*%
%TA.AperFunction,ViaPad*%
%ADD15C,0.600000*%
%TD*%
%TA.AperFunction,Conductor*%
%ADD16C,0.400000*%
%TD*%
G04 APERTURE END LIST*
D10*
%TO.P,J2,1*%
%TO.N,CSYNC_INV*%
X170000000Y-94500000D03*
D11*
%TO.P,J2,2*%
%TO.N,INTENSITY_INV*%
X174500000Y-103000000D03*
%TO.P,J2,3*%
%TO.N,GND*%
X170000000Y-103000000D03*
%TO.P,J2,4*%
%TO.N,BLACK*%
X175500000Y-98500000D03*
%TO.P,J2,5*%
%TO.N,GREEN_INV*%
X173500000Y-95000000D03*
%TO.P,J2,6*%
%TO.N,BLUE_INV*%
X166500000Y-95000000D03*
%TO.P,J2,7*%
%TO.N,GND*%
X164500000Y-98500000D03*
%TO.P,J2,8*%
%TO.N,RED_INV*%
X165500000Y-103000000D03*
D12*
%TO.P,J2,SH1*%
%TO.N,GND*%
X162500000Y-105500000D03*
%TO.P,J2,SH2*%
X177500000Y-105500000D03*
%TD*%
D13*
%TO.P,J3,1*%
%TO.N,+5V*%
X140000000Y-108000000D03*
D14*
%TO.P,J3,2*%
%TO.N,GND*%
X142540000Y-108000000D03*
%TD*%
D10*
%TO.P,U2,1*%
%TO.N,HSYNC*%
X145000000Y-88000000D03*
D11*
%TO.P,U2,2*%
%TO.N,VSYNC*%
X145000000Y-90540000D03*
%TO.P,U2,3*%
%TO.N,CSYNC*%
X145000000Y-93080000D03*
%TO.P,U2,4*%
%TO.N,GND*%
X145000000Y-95620000D03*
%TO.P,U2,5*%
X145000000Y-98160000D03*
%TO.P,U2,6*%
%TO.N,N/C*%
X145000000Y-100700000D03*
%TO.P,U2,7*%
%TO.N,GND*%
X145000000Y-103240000D03*
%TO.P,U2,8*%
%TO.N,N/C*%
X152620000Y-103240000D03*
%TO.P,U2,9*%
%TO.N,GND*%
X152620000Y-100700000D03*
%TO.P,U2,10*%
X152620000Y-98160000D03*
%TO.P,U2,11*%
%TO.N,N/C*%
X152620000Y-95620000D03*
%TO.P,U2,12*%
%TO.N,GND*%
X152620000Y-93080000D03*
%TO.P,U2,13*%
X152620000Y-90540000D03*
%TO.P,U2,14*%
%TO.N,+5V*%
X152620000Y-88000000D03*
%TD*%
D10*
%TO.P,R1,1*%
%TO.N,+5V*%
X150000000Y-108000000D03*
D11*
%TO.P,R1,2*%
%TO.N,BLACK*%
X157620000Y-108000000D03*
%TD*%
D10*
%TO.P,U1,1*%
%TO.N,RED*%
X132000000Y-88000000D03*
D11*
%TO.P,U1,2*%
%TO.N,RED_INV*%
X132000000Y-90540000D03*
%TO.P,U1,3*%
%TO.N,GREEN*%
X132000000Y-93080000D03*
%TO.P,U1,4*%
%TO.N,GREEN_INV*%
X132000000Y-95620000D03*
%TO.P,U1,5*%
%TO.N,BLUE*%
X132000000Y-98160000D03*
%TO.P,U1,6*%
%TO.N,BLUE_INV*%
X132000000Y-100700000D03*
%TO.P,U1,7*%
%TO.N,GND*%
X132000000Y-103240000D03*
%TO.P,U1,8*%
%TO.N,INTENSITY_INV*%
X139620000Y-103240000D03*
%TO.P,U1,9*%
%TO.N,INTENSITY*%
X139620000Y-100700000D03*
%TO.P,U1,10*%
%TO.N,CSYNC_INV*%
X139620000Y-98160000D03*
%TO.P,U1,11*%
%TO.N,CSYNC*%
X139620000Y-95620000D03*
%TO.P,U1,12*%
%TO.N,N/C*%
X139620000Y-93080000D03*
%TO.P,U1,13*%
%TO.N,GND*%
X139620000Y-90540000D03*
%TO.P,U1,14*%
%TO.N,+5V*%
X139620000Y-88000000D03*
%TD*%
D10*
%TO.P,J1,1*%
%TO.N,GND*%
X108000000Y-100000000D03*
D11*
%TO.P,J1,2*%
%TO.N,N/C*%
X110770000Y-100000000D03*
%TO.P,J1,3*%
%TO.N,RED*%
X113540000Y-100000000D03*
%TO.P,J1,4*%
%TO.N,GREEN*%
X116310000Y-100000000D03*
%TO.P,J1,5*%
%TO.N,BLUE*%
X119080000Y-100000000D03*
%TO.P,J1,6*%
%TO.N,INTENSITY*%
X109385000Y-102840000D03*
%TO.P,J1,7*%
%TO.N,N/C*%
X112155000Y-102840000D03*
%TO.P,J1,8*%
%TO.N,HSYNC*%
X114925000Y-102840000D03*
%TO.P,J1,9*%
%TO.N,VSYNC*%
X117695000Y-102840000D03*
D12*
%TO.P,J1,MH1*%
%TO.N,N/C*%
X102920000Y-101420000D03*
%TO.P,J1,MH2*%
X124160000Y-101420000D03*
%TD*%
D10*
%TO.P,C1,1*%
%TO.N,+5V*%
X133000000Y-82000000D03*
D11*
%TO.P,C1,2*%
%TO.N,GND*%
X135500000Y-82000000D03*
%TD*%
D10*
%TO.P,C2,1*%
%TO.N,+5V*%
X146000000Y-82000000D03*
D11*
%TO.P,C2,2*%
%TO.N,GND*%
X148500000Y-82000000D03*
%TD*%
D15*
%TO.N,RED_INV*%
X131089200Y-105754100D03*
%TO.N,HSYNC*%
X133687200Y-103789600D03*
%TO.N,VSYNC*%
X128118800Y-92332500D03*
%TD*%
D16*
%TO.N,+5V*%
X134201700Y-82436300D02*
X138563700Y-86798300D01*
X150000000Y-91448200D02*
X152246500Y-89201700D01*
X133000000Y-82000000D02*
X134201700Y-82000000D01*
X140821700Y-88000000D02*
X145620000Y-83201700D01*
X139620000Y-88000000D02*
X140821700Y-88000000D01*
X134201700Y-82000000D02*
X134201700Y-82436300D01*
X150000000Y-108000000D02*
X150000000Y-91448200D01*
X139620000Y-88000000D02*
X139620000Y-86798300D01*
X152246500Y-89201700D02*
X152620000Y-89201700D01*
X152620000Y-88000000D02*
X152620000Y-89201700D01*
X145620000Y-83201700D02*
X146000000Y-83201700D01*
X138563700Y-86798300D02*
X139620000Y-86798300D01*
X146000000Y-82000000D02*
X146000000Y-83201700D01*
%TO.N,RED*%
X113540000Y-100000000D02*
X114741700Y-100000000D01*
X126591500Y-88000000D02*
X132000000Y-88000000D01*
X114741700Y-100000000D02*
X114741700Y-99849800D01*
X114741700Y-99849800D02*
X126591500Y-88000000D01*
%TO.N,RED_INV*%
X130723900Y-92644300D02*
X131626500Y-91741700D01*
X132000000Y-90540000D02*
X132000000Y-91741700D01*
X131626500Y-91741700D02*
X132000000Y-91741700D01*
X131089200Y-105754100D02*
X130723900Y-105388800D01*
X130723900Y-105388800D02*
X130723900Y-92644300D01*
%TO.N,HSYNC*%
X139137900Y-94350000D02*
X133687200Y-99800700D01*
X145000000Y-89201700D02*
X144624400Y-89201700D01*
X143798300Y-90612900D02*
X140061200Y-94350000D01*
X143798300Y-90027800D02*
X143798300Y-90612900D01*
X145000000Y-88000000D02*
X145000000Y-89201700D01*
X133687200Y-99800700D02*
X133687200Y-103789600D01*
X144624400Y-89201700D02*
X143798300Y-90027800D01*
X140061200Y-94350000D02*
X139137900Y-94350000D01*
%TO.N,VSYNC*%
X118896700Y-102840000D02*
X128118800Y-93617900D01*
X128118800Y-93617900D02*
X128118800Y-92332500D01*
X117695000Y-102840000D02*
X118896700Y-102840000D01*
%TO.N,BLACK*%
X162689400Y-108000000D02*
X172189400Y-98500000D01*
X172189400Y-98500000D02*
X175500000Y-98500000D01*
X157620000Y-108000000D02*
X162689400Y-108000000D01*
%TD*%
%TA.AperFunction,Conductor*%
%TO.N,GND*%
G36*
X152870000Y-100384314D02*
G01*
X152865606Y-100379920D01*
X152774394Y-100327259D01*
X152672661Y-100300000D01*
X152567339Y-100300000D01*
X152465606Y-100327259D01*
X152374394Y-100379920D01*
X152370000Y-100384314D01*
X152370000Y-98475686D01*
X152374394Y-98480080D01*
X152465606Y-98532741D01*
X152567339Y-98560000D01*
X152672661Y-98560000D01*
X152774394Y-98532741D01*
X152865606Y-98480080D01*
X152870000Y-98475686D01*
X152870000Y-100384314D01*
G37*
%TD.AperFunction*%
%TA.AperFunction,Conductor*%
G36*
X152870000Y-92764314D02*
G01*
X152865606Y-92759920D01*
X152774394Y-92707259D01*
X152672661Y-92680000D01*
X152567339Y-92680000D01*
X152465606Y-92707259D01*
X152374394Y-92759920D01*
X152370000Y-92764314D01*
X152370000Y-90855686D01*
X152374394Y-90860080D01*
X152465606Y-90912741D01*
X152567339Y-90940000D01*
X152672661Y-90940000D01*
X152774394Y-90912741D01*
X152865606Y-90860080D01*
X152870000Y-90855686D01*
X152870000Y-92764314D01*
G37*
%TD.AperFunction*%
%TA.AperFunction,Conductor*%
G36*
X145250000Y-97844314D02*
G01*
X145245606Y-97839920D01*
X145154394Y-97787259D01*
X145052661Y-97760000D01*
X144947339Y-97760000D01*
X144845606Y-97787259D01*
X144754394Y-97839920D01*
X144750000Y-97844314D01*
X144750000Y-95935686D01*
X144754394Y-95940080D01*
X144845606Y-95992741D01*
X144947339Y-96020000D01*
X145052661Y-96020000D01*
X145154394Y-95992741D01*
X145245606Y-95940080D01*
X145250000Y-95935686D01*
X145250000Y-97844314D01*
G37*
%TD.AperFunction*%
%TA.AperFunction,Conductor*%
G36*
X179867539Y-80095185D02*
G01*
X179913294Y-80147989D01*
X179924500Y-80199500D01*
X179924500Y-111800500D01*
X179904815Y-111867539D01*
X179852011Y-111913294D01*
X179800500Y-111924500D01*
X100199500Y-111924500D01*
X100132461Y-111904815D01*
X100086706Y-111852011D01*
X100075500Y-111800500D01*
X100075500Y-107105131D01*
X138849500Y-107105131D01*
X138849500Y-108894856D01*
X138849502Y-108894882D01*
X138852413Y-108919987D01*
X138852415Y-108919991D01*
X138897793Y-109022764D01*
X138897794Y-109022765D01*
X138977235Y-109102206D01*
X139080009Y-109147585D01*
X139105135Y-109150500D01*
X140894864Y-109150499D01*
X140894879Y-109150497D01*
X140894882Y-109150497D01*
X140919987Y-109147586D01*
X140919988Y-109147585D01*
X140919991Y-109147585D01*
X141022765Y-109102206D01*
X141102206Y-109022765D01*
X141147585Y-108919991D01*
X141150500Y-108894865D01*
X141150499Y-108763076D01*
X141170183Y-108696040D01*
X141222987Y-108650285D01*
X141292145Y-108640341D01*
X141355701Y-108669365D01*
X141382500Y-108703605D01*
X141382832Y-108703402D01*
X141384603Y-108706292D01*
X141384977Y-108706770D01*
X141385377Y-108707555D01*
X141510272Y-108879459D01*
X141510276Y-108879464D01*
X141660535Y-109029723D01*
X141660540Y-109029727D01*
X141832442Y-109154620D01*
X142021782Y-109251095D01*
X142223871Y-109316757D01*
X142290000Y-109327231D01*
X142290000Y-108433012D01*
X142347007Y-108465925D01*
X142474174Y-108500000D01*
X142605826Y-108500000D01*
X142732993Y-108465925D01*
X142790000Y-108433012D01*
X142790000Y-109327230D01*
X142856126Y-109316757D01*
X142856129Y-109316757D01*
X143058217Y-109251095D01*
X143247557Y-109154620D01*
X143419459Y-109029727D01*
X143419464Y-109029723D01*
X143569723Y-108879464D01*
X143569727Y-108879459D01*
X143694620Y-108707557D01*
X143791095Y-108518217D01*
X143856757Y-108316129D01*
X143856757Y-108316126D01*
X143867231Y-108250000D01*
X142973012Y-108250000D01*
X143005925Y-108192993D01*
X143040000Y-108065826D01*
X143040000Y-107934174D01*
X143005925Y-107807007D01*
X142973012Y-107750000D01*
X143867231Y-107750000D01*
X143856757Y-107683873D01*
X143856757Y-107683870D01*
X143791095Y-107481782D01*
X143694620Y-107292442D01*
X143645214Y-107224439D01*
X143594859Y-107155131D01*
X148899500Y-107155131D01*
X148899500Y-108844856D01*
X148899502Y-108844882D01*
X148902413Y-108869987D01*
X148902415Y-108869991D01*
X148947793Y-108972764D01*
X148947794Y-108972765D01*
X149027235Y-109052206D01*
X149130009Y-109097585D01*
X149155135Y-109100500D01*
X150844864Y-109100499D01*
X150844879Y-109100497D01*
X150844882Y-109100497D01*
X150869987Y-109097586D01*
X150869988Y-109097585D01*
X150869991Y-109097585D01*
X150972765Y-109052206D01*
X151052206Y-108972765D01*
X151097585Y-108869991D01*
X151100500Y-108844865D01*
X151100499Y-107913389D01*
X156519500Y-107913389D01*
X156519500Y-108086611D01*
X156546598Y-108257701D01*
X156600127Y-108422445D01*
X156678768Y-108576788D01*
X156780586Y-108716928D01*
X156903072Y-108839414D01*
X157043212Y-108941232D01*
X157197555Y-109019873D01*
X157362299Y-109073402D01*
X157533389Y-109100500D01*
X157533390Y-109100500D01*
X157706610Y-109100500D01*
X157706611Y-109100500D01*
X157877701Y-109073402D01*
X158042445Y-109019873D01*
X158196788Y-108941232D01*
X158336928Y-108839414D01*
X158459414Y-108716928D01*
X158561232Y-108576788D01*
X158565607Y-108568202D01*
X158613582Y-108517408D01*
X158676090Y-108500500D01*
X162755290Y-108500500D01*
X162755292Y-108500500D01*
X162882586Y-108466392D01*
X162996714Y-108400500D01*
X166147214Y-105249999D01*
X175515654Y-105249999D01*
X175515655Y-105250000D01*
X176425885Y-105250000D01*
X176400000Y-105413428D01*
X176400000Y-105586572D01*
X176425885Y-105750000D01*
X175515655Y-105750000D01*
X175534221Y-105891016D01*
X175602075Y-106144255D01*
X175702404Y-106386471D01*
X175702409Y-106386482D01*
X175833496Y-106613528D01*
X175993092Y-106821519D01*
X175993098Y-106821526D01*
X176178473Y-107006901D01*
X176178480Y-107006907D01*
X176386471Y-107166503D01*
X176613517Y-107297590D01*
X176613528Y-107297595D01*
X176855744Y-107397924D01*
X177108979Y-107465777D01*
X177108992Y-107465780D01*
X177250000Y-107484343D01*
X177250000Y-106574115D01*
X177413428Y-106600000D01*
X177586572Y-106600000D01*
X177750000Y-106574115D01*
X177750000Y-107484342D01*
X177891007Y-107465780D01*
X177891020Y-107465777D01*
X178144255Y-107397924D01*
X178386471Y-107297595D01*
X178386482Y-107297590D01*
X178613528Y-107166503D01*
X178821519Y-107006907D01*
X178821526Y-107006901D01*
X179006901Y-106821526D01*
X179006907Y-106821519D01*
X179166503Y-106613528D01*
X179297590Y-106386482D01*
X179297595Y-106386471D01*
X179397924Y-106144255D01*
X179465778Y-105891016D01*
X179484345Y-105750000D01*
X178574115Y-105750000D01*
X178600000Y-105586572D01*
X178600000Y-105413428D01*
X178574115Y-105250000D01*
X179484345Y-105250000D01*
X179484345Y-105249999D01*
X179465778Y-105108983D01*
X179397924Y-104855744D01*
X179297595Y-104613528D01*
X179297590Y-104613517D01*
X179166503Y-104386471D01*
X179006907Y-104178480D01*
X179006901Y-104178473D01*
X178821526Y-103993098D01*
X178821519Y-103993092D01*
X178613528Y-103833496D01*
X178386482Y-103702409D01*
X178386471Y-103702404D01*
X178144255Y-103602075D01*
X177891016Y-103534221D01*
X177750000Y-103515654D01*
X177750000Y-104425884D01*
X177586572Y-104400000D01*
X177413428Y-104400000D01*
X177250000Y-104425884D01*
X177250000Y-103515654D01*
X177249999Y-103515654D01*
X177108983Y-103534221D01*
X176855744Y-103602075D01*
X176613528Y-103702404D01*
X176613517Y-103702409D01*
X176386471Y-103833496D01*
X176178480Y-103993092D01*
X176178473Y-103993098D01*
X175993098Y-104178473D01*
X175993092Y-104178480D01*
X175833496Y-104386471D01*
X175702409Y-104613517D01*
X175702404Y-104613528D01*
X175602075Y-104855744D01*
X175534221Y-105108983D01*
X175515654Y-105249999D01*
X166147214Y-105249999D01*
X168610896Y-102786317D01*
X168672217Y-102752834D01*
X168698575Y-102750000D01*
X169566988Y-102750000D01*
X169534075Y-102807007D01*
X169500000Y-102934174D01*
X169500000Y-103065826D01*
X169534075Y-103192993D01*
X169566988Y-103250000D01*
X168723391Y-103250000D01*
X168732009Y-103304413D01*
X168795244Y-103499029D01*
X168888140Y-103681349D01*
X169008417Y-103846894D01*
X169008417Y-103846895D01*
X169153104Y-103991582D01*
X169318650Y-104111859D01*
X169500968Y-104204754D01*
X169695578Y-104267988D01*
X169750000Y-104276607D01*
X169750000Y-103433012D01*
X169807007Y-103465925D01*
X169934174Y-103500000D01*
X170065826Y-103500000D01*
X170192993Y-103465925D01*
X170250000Y-103433012D01*
X170250000Y-104276606D01*
X170304421Y-104267988D01*
X170499031Y-104204754D01*
X170681349Y-104111859D01*
X170846894Y-103991582D01*
X170846895Y-103991582D01*
X170991582Y-103846895D01*
X170991582Y-103846894D01*
X171111859Y-103681349D01*
X171204755Y-103499029D01*
X171267990Y-103304413D01*
X171276609Y-103250000D01*
X170433012Y-103250000D01*
X170465925Y-103192993D01*
X170500000Y-103065826D01*
X170500000Y-102934174D01*
X170494431Y-102913389D01*
X173399500Y-102913389D01*
X173399500Y-103086611D01*
X173406151Y-103128605D01*
X173423873Y-103240500D01*
X173426598Y-103257701D01*
X173480127Y-103422445D01*
X173558768Y-103576788D01*
X173660586Y-103716928D01*
X173783072Y-103839414D01*
X173923212Y-103941232D01*
X174077555Y-104019873D01*
X174242299Y-104073402D01*
X174413389Y-104100500D01*
X174413390Y-104100500D01*
X174586610Y-104100500D01*
X174586611Y-104100500D01*
X174757701Y-104073402D01*
X174922445Y-104019873D01*
X175076788Y-103941232D01*
X175216928Y-103839414D01*
X175339414Y-103716928D01*
X175441232Y-103576788D01*
X175519873Y-103422445D01*
X175573402Y-103257701D01*
X175600500Y-103086611D01*
X175600500Y-102913389D01*
X175573402Y-102742299D01*
X175519873Y-102577555D01*
X175441232Y-102423212D01*
X175339414Y-102283072D01*
X175216928Y-102160586D01*
X175076788Y-102058768D01*
X174922445Y-101980127D01*
X174757701Y-101926598D01*
X174757699Y-101926597D01*
X174757698Y-101926597D01*
X174619790Y-101904755D01*
X174586611Y-101899500D01*
X174413389Y-101899500D01*
X174380210Y-101904755D01*
X174242302Y-101926597D01*
X174077552Y-101980128D01*
X173923211Y-102058768D01*
X173871748Y-102096159D01*
X173783072Y-102160586D01*
X173783070Y-102160588D01*
X173783069Y-102160588D01*
X173660588Y-102283069D01*
X173660588Y-102283070D01*
X173660586Y-102283072D01*
X173634737Y-102318650D01*
X173558768Y-102423211D01*
X173480128Y-102577552D01*
X173426597Y-102742302D01*
X173406806Y-102867259D01*
X173399500Y-102913389D01*
X170494431Y-102913389D01*
X170465925Y-102807007D01*
X170433012Y-102750000D01*
X171276609Y-102750000D01*
X171267990Y-102695586D01*
X171204755Y-102500970D01*
X171111859Y-102318650D01*
X170991582Y-102153105D01*
X170991582Y-102153104D01*
X170846895Y-102008417D01*
X170681349Y-101888140D01*
X170499029Y-101795244D01*
X170304413Y-101732009D01*
X170250000Y-101723390D01*
X170250000Y-102566988D01*
X170192993Y-102534075D01*
X170065826Y-102500000D01*
X169934174Y-102500000D01*
X169807007Y-102534075D01*
X169750000Y-102566988D01*
X169750000Y-101698575D01*
X169758644Y-101669134D01*
X169765168Y-101639148D01*
X169768922Y-101634132D01*
X169769685Y-101631536D01*
X169786314Y-101610899D01*
X172360395Y-99036819D01*
X172421718Y-99003334D01*
X172448076Y-99000500D01*
X174443910Y-99000500D01*
X174510949Y-99020185D01*
X174554393Y-99068202D01*
X174558765Y-99076783D01*
X174558770Y-99076792D01*
X174599689Y-99133111D01*
X174660586Y-99216928D01*
X174783072Y-99339414D01*
X174923212Y-99441232D01*
X175077555Y-99519873D01*
X175242299Y-99573402D01*
X175413389Y-99600500D01*
X175413390Y-99600500D01*
X175586610Y-99600500D01*
X175586611Y-99600500D01*
X175757701Y-99573402D01*
X175922445Y-99519873D01*
X176076788Y-99441232D01*
X176216928Y-99339414D01*
X176339414Y-99216928D01*
X176441232Y-99076788D01*
X176519873Y-98922445D01*
X176573402Y-98757701D01*
X176600500Y-98586611D01*
X176600500Y-98413389D01*
X176573402Y-98242299D01*
X176519873Y-98077555D01*
X176441232Y-97923212D01*
X176339414Y-97783072D01*
X176216928Y-97660586D01*
X176076788Y-97558768D01*
X175922445Y-97480127D01*
X175757701Y-97426598D01*
X175757699Y-97426597D01*
X175757698Y-97426597D01*
X175626271Y-97405781D01*
X175586611Y-97399500D01*
X175413389Y-97399500D01*
X175373728Y-97405781D01*
X175242302Y-97426597D01*
X175077552Y-97480128D01*
X174923211Y-97558768D01*
X174843256Y-97616859D01*
X174783072Y-97660586D01*
X174783070Y-97660588D01*
X174783069Y-97660588D01*
X174660588Y-97783069D01*
X174660588Y-97783070D01*
X174660586Y-97783072D01*
X174657544Y-97787259D01*
X174558770Y-97923207D01*
X174558765Y-97923216D01*
X174554393Y-97931798D01*
X174506418Y-97982592D01*
X174443910Y-97999500D01*
X172123508Y-97999500D01*
X171996212Y-98033608D01*
X171882086Y-98099500D01*
X171882083Y-98099502D01*
X166812181Y-103169404D01*
X166750858Y-103202889D01*
X166681166Y-103197905D01*
X166625233Y-103156033D01*
X166600816Y-103090569D01*
X166600500Y-103081723D01*
X166600500Y-102913389D01*
X166585321Y-102817552D01*
X166573402Y-102742299D01*
X166519873Y-102577555D01*
X166441232Y-102423212D01*
X166339414Y-102283072D01*
X166216928Y-102160586D01*
X166076788Y-102058768D01*
X165922445Y-101980127D01*
X165757701Y-101926598D01*
X165757699Y-101926597D01*
X165757698Y-101926597D01*
X165619790Y-101904755D01*
X165586611Y-101899500D01*
X165413389Y-101899500D01*
X165380210Y-101904755D01*
X165242302Y-101926597D01*
X165077552Y-101980128D01*
X164923211Y-102058768D01*
X164871748Y-102096159D01*
X164783072Y-102160586D01*
X164783070Y-102160588D01*
X164783069Y-102160588D01*
X164660588Y-102283069D01*
X164660588Y-102283070D01*
X164660586Y-102283072D01*
X164634737Y-102318650D01*
X164558768Y-102423211D01*
X164480128Y-102577552D01*
X164426597Y-102742302D01*
X164406806Y-102867259D01*
X164399500Y-102913389D01*
X164399500Y-103086611D01*
X164406151Y-103128605D01*
X164423873Y-103240500D01*
X164426598Y-103257701D01*
X164480127Y-103422445D01*
X164558768Y-103576788D01*
X164660586Y-103716928D01*
X164783072Y-103839414D01*
X164923212Y-103941232D01*
X165077555Y-104019873D01*
X165242299Y-104073402D01*
X165413389Y-104100500D01*
X165413390Y-104100500D01*
X165581723Y-104100500D01*
X165648762Y-104120185D01*
X165694517Y-104172989D01*
X165704461Y-104242147D01*
X165675436Y-104305703D01*
X165669404Y-104312181D01*
X164690907Y-105290677D01*
X164629584Y-105324162D01*
X164559892Y-105319178D01*
X164503959Y-105277306D01*
X164480287Y-105219181D01*
X164465780Y-105108992D01*
X164465777Y-105108979D01*
X164397924Y-104855744D01*
X164297595Y-104613528D01*
X164297590Y-104613517D01*
X164166503Y-104386471D01*
X164006907Y-104178480D01*
X164006901Y-104178473D01*
X163821526Y-103993098D01*
X163821519Y-103993092D01*
X163613528Y-103833496D01*
X163386482Y-103702409D01*
X163386471Y-103702404D01*
X163144255Y-103602075D01*
X162891016Y-103534221D01*
X162750000Y-103515654D01*
X162750000Y-104425884D01*
X162586572Y-104400000D01*
X162413428Y-104400000D01*
X162250000Y-104425884D01*
X162250000Y-103515654D01*
X162249999Y-103515654D01*
X162108983Y-103534221D01*
X161855744Y-103602075D01*
X161613528Y-103702404D01*
X161613517Y-103702409D01*
X161386471Y-103833496D01*
X161178480Y-103993092D01*
X161178473Y-103993098D01*
X160993098Y-104178473D01*
X160993092Y-104178480D01*
X160833496Y-104386471D01*
X160702409Y-104613517D01*
X160702404Y-104613528D01*
X160602075Y-104855744D01*
X160534221Y-105108983D01*
X160515654Y-105249999D01*
X160515655Y-105250000D01*
X161425885Y-105250000D01*
X161400000Y-105413428D01*
X161400000Y-105586572D01*
X161425885Y-105750000D01*
X160515655Y-105750000D01*
X160534221Y-105891016D01*
X160602075Y-106144255D01*
X160702404Y-106386471D01*
X160702409Y-106386482D01*
X160833496Y-106613528D01*
X160993092Y-106821519D01*
X160993098Y-106821526D01*
X161178473Y-107006901D01*
X161178480Y-107006907D01*
X161386471Y-107166503D01*
X161562462Y-107268113D01*
X161610678Y-107318680D01*
X161623900Y-107387287D01*
X161597932Y-107452152D01*
X161541018Y-107492680D01*
X161500462Y-107499500D01*
X158676090Y-107499500D01*
X158609051Y-107479815D01*
X158565607Y-107431798D01*
X158561234Y-107423216D01*
X158561229Y-107423207D01*
X158531672Y-107382526D01*
X158459414Y-107283072D01*
X158336928Y-107160586D01*
X158196788Y-107058768D01*
X158042445Y-106980127D01*
X157877701Y-106926598D01*
X157877699Y-106926597D01*
X157877698Y-106926597D01*
X157746271Y-106905781D01*
X157706611Y-106899500D01*
X157533389Y-106899500D01*
X157493728Y-106905781D01*
X157362302Y-106926597D01*
X157197552Y-106980128D01*
X157043211Y-107058768D01*
X156979392Y-107105136D01*
X156903072Y-107160586D01*
X156903070Y-107160588D01*
X156903069Y-107160588D01*
X156780588Y-107283069D01*
X156780588Y-107283070D01*
X156780586Y-107283072D01*
X156754715Y-107318680D01*
X156678768Y-107423211D01*
X156600128Y-107577552D01*
X156546597Y-107742302D01*
X156545378Y-107750000D01*
X156519500Y-107913389D01*
X151100499Y-107913389D01*
X151100499Y-107155136D01*
X151100497Y-107155117D01*
X151097586Y-107130012D01*
X151097585Y-107130010D01*
X151097585Y-107130009D01*
X151052206Y-107027235D01*
X150972765Y-106947794D01*
X150972763Y-106947793D01*
X150869992Y-106902415D01*
X150844868Y-106899500D01*
X150844865Y-106899500D01*
X150624500Y-106899500D01*
X150557461Y-106879815D01*
X150511706Y-106827011D01*
X150500500Y-106775500D01*
X150500500Y-91706875D01*
X150520185Y-91639836D01*
X150536814Y-91619199D01*
X151199020Y-90956993D01*
X151260339Y-90923511D01*
X151330030Y-90928495D01*
X151385964Y-90970366D01*
X151404627Y-91006356D01*
X151415243Y-91039028D01*
X151508140Y-91221349D01*
X151628417Y-91386894D01*
X151628417Y-91386895D01*
X151773104Y-91531582D01*
X151938650Y-91651859D01*
X152032179Y-91699515D01*
X152082975Y-91747490D01*
X152099770Y-91815311D01*
X152077232Y-91881446D01*
X152032179Y-91920485D01*
X151938650Y-91968140D01*
X151773105Y-92088417D01*
X151773104Y-92088417D01*
X151628417Y-92233104D01*
X151628417Y-92233105D01*
X151508140Y-92398650D01*
X151415244Y-92580970D01*
X151352009Y-92775586D01*
X151343391Y-92830000D01*
X152304314Y-92830000D01*
X152299920Y-92834394D01*
X152247259Y-92925606D01*
X152220000Y-93027339D01*
X152220000Y-93132661D01*
X152247259Y-93234394D01*
X152299920Y-93325606D01*
X152304314Y-93330000D01*
X151343391Y-93330000D01*
X151352009Y-93384413D01*
X151415244Y-93579029D01*
X151508140Y-93761349D01*
X151628417Y-93926894D01*
X151628417Y-93926895D01*
X151773104Y-94071582D01*
X151938650Y-94191859D01*
X152120970Y-94284755D01*
X152281613Y-94336952D01*
X152339289Y-94376390D01*
X152366487Y-94440748D01*
X152354572Y-94509595D01*
X152307328Y-94561070D01*
X152281615Y-94572814D01*
X152197549Y-94600129D01*
X152043211Y-94678768D01*
X152030754Y-94687819D01*
X151903072Y-94780586D01*
X151903070Y-94780588D01*
X151903069Y-94780588D01*
X151780588Y-94903069D01*
X151780588Y-94903070D01*
X151780586Y-94903072D01*
X151754737Y-94938650D01*
X151678768Y-95043211D01*
X151600128Y-95197552D01*
X151546597Y-95362302D01*
X151530236Y-95465606D01*
X151519500Y-95533389D01*
X151519500Y-95706611D01*
X151546598Y-95877701D01*
X151600127Y-96042445D01*
X151678768Y-96196788D01*
X151780586Y-96336928D01*
X151903072Y-96459414D01*
X152043212Y-96561232D01*
X152197555Y-96639873D01*
X152281613Y-96667185D01*
X152339289Y-96706623D01*
X152366487Y-96770981D01*
X152354572Y-96839828D01*
X152307328Y-96891303D01*
X152281614Y-96903047D01*
X152120968Y-96955244D01*
X151938650Y-97048140D01*
X151773105Y-97168417D01*
X151773104Y-97168417D01*
X151628417Y-97313104D01*
X151628417Y-97313105D01*
X151508140Y-97478650D01*
X151415244Y-97660970D01*
X151352009Y-97855586D01*
X151343391Y-97910000D01*
X152304314Y-97910000D01*
X152299920Y-97914394D01*
X152247259Y-98005606D01*
X152220000Y-98107339D01*
X152220000Y-98212661D01*
X152247259Y-98314394D01*
X152299920Y-98405606D01*
X152304314Y-98410000D01*
X151343391Y-98410000D01*
X151352009Y-98464413D01*
X151415244Y-98659029D01*
X151508140Y-98841349D01*
X151628417Y-99006894D01*
X151628417Y-99006895D01*
X151773104Y-99151582D01*
X151938650Y-99271859D01*
X152032179Y-99319515D01*
X152082975Y-99367490D01*
X152099770Y-99435311D01*
X152077232Y-99501446D01*
X152032179Y-99540485D01*
X151938650Y-99588140D01*
X151773105Y-99708417D01*
X151773104Y-99708417D01*
X151628417Y-99853104D01*
X151628417Y-99853105D01*
X151508140Y-100018650D01*
X151415244Y-100200970D01*
X151352009Y-100395586D01*
X151343391Y-100450000D01*
X152304314Y-100450000D01*
X152299920Y-100454394D01*
X152247259Y-100545606D01*
X152220000Y-100647339D01*
X152220000Y-100752661D01*
X152247259Y-100854394D01*
X152299920Y-100945606D01*
X152304314Y-100950000D01*
X151343391Y-100950000D01*
X151352009Y-101004413D01*
X151415244Y-101199029D01*
X151508140Y-101381349D01*
X151628417Y-101546894D01*
X151628417Y-101546895D01*
X151773104Y-101691582D01*
X151938650Y-101811859D01*
X152120970Y-101904755D01*
X152281613Y-101956952D01*
X152339289Y-101996390D01*
X152366487Y-102060748D01*
X152354572Y-102129595D01*
X152307328Y-102181070D01*
X152281614Y-102192814D01*
X152203951Y-102218049D01*
X152197549Y-102220129D01*
X152043211Y-102298768D01*
X151987149Y-102339500D01*
X151903072Y-102400586D01*
X151903070Y-102400588D01*
X151903069Y-102400588D01*
X151780588Y-102523069D01*
X151780588Y-102523070D01*
X151780586Y-102523072D01*
X151772592Y-102534075D01*
X151678768Y-102663211D01*
X151600128Y-102817552D01*
X151546597Y-102982302D01*
X151519500Y-103153389D01*
X151519500Y-103326610D01*
X151544469Y-103484263D01*
X151546598Y-103497701D01*
X151600127Y-103662445D01*
X151678768Y-103816788D01*
X151780586Y-103956928D01*
X151903072Y-104079414D01*
X152043212Y-104181232D01*
X152197555Y-104259873D01*
X152362299Y-104313402D01*
X152533389Y-104340500D01*
X152533390Y-104340500D01*
X152706610Y-104340500D01*
X152706611Y-104340500D01*
X152877701Y-104313402D01*
X153042445Y-104259873D01*
X153196788Y-104181232D01*
X153336928Y-104079414D01*
X153459414Y-103956928D01*
X153561232Y-103816788D01*
X153639873Y-103662445D01*
X153693402Y-103497701D01*
X153720500Y-103326611D01*
X153720500Y-103153389D01*
X153693402Y-102982299D01*
X153639873Y-102817555D01*
X153561232Y-102663212D01*
X153459414Y-102523072D01*
X153336928Y-102400586D01*
X153196788Y-102298768D01*
X153042449Y-102220128D01*
X152958385Y-102192814D01*
X152900710Y-102153376D01*
X152873512Y-102089017D01*
X152885427Y-102020171D01*
X152932672Y-101968695D01*
X152958386Y-101956952D01*
X153119029Y-101904755D01*
X153301349Y-101811859D01*
X153466894Y-101691582D01*
X153466895Y-101691582D01*
X153611582Y-101546895D01*
X153611582Y-101546894D01*
X153731859Y-101381349D01*
X153824755Y-101199029D01*
X153887990Y-101004413D01*
X153896609Y-100950000D01*
X152935686Y-100950000D01*
X152940080Y-100945606D01*
X152992741Y-100854394D01*
X153020000Y-100752661D01*
X153020000Y-100647339D01*
X152992741Y-100545606D01*
X152940080Y-100454394D01*
X152935686Y-100450000D01*
X153896609Y-100450000D01*
X153887990Y-100395586D01*
X153824755Y-100200970D01*
X153731859Y-100018650D01*
X153611582Y-99853105D01*
X153611582Y-99853104D01*
X153466895Y-99708417D01*
X153301349Y-99588140D01*
X153207820Y-99540485D01*
X153157024Y-99492511D01*
X153140229Y-99424690D01*
X153162766Y-99358555D01*
X153207820Y-99319515D01*
X153301349Y-99271859D01*
X153466894Y-99151582D01*
X153466895Y-99151582D01*
X153611582Y-99006895D01*
X153611582Y-99006894D01*
X153731861Y-98841347D01*
X153824755Y-98659030D01*
X153887990Y-98464413D01*
X153896609Y-98410000D01*
X152935686Y-98410000D01*
X152940080Y-98405606D01*
X152992741Y-98314394D01*
X153009995Y-98250000D01*
X163223391Y-98250000D01*
X164066988Y-98250000D01*
X164034075Y-98307007D01*
X164000000Y-98434174D01*
X164000000Y-98565826D01*
X164034075Y-98692993D01*
X164066988Y-98750000D01*
X163223391Y-98750000D01*
X163232009Y-98804413D01*
X163295244Y-98999029D01*
X163388140Y-99181349D01*
X163508417Y-99346894D01*
X163508417Y-99346895D01*
X163653104Y-99491582D01*
X163818650Y-99611859D01*
X164000968Y-99704754D01*
X164195578Y-99767988D01*
X164250000Y-99776607D01*
X164250000Y-98933012D01*
X164307007Y-98965925D01*
X164434174Y-99000000D01*
X164565826Y-99000000D01*
X164692993Y-98965925D01*
X164750000Y-98933012D01*
X164750000Y-99776606D01*
X164804421Y-99767988D01*
X164999031Y-99704754D01*
X165181349Y-99611859D01*
X165346894Y-99491582D01*
X165346895Y-99491582D01*
X165491582Y-99346895D01*
X165491582Y-99346894D01*
X165611859Y-99181349D01*
X165704755Y-98999029D01*
X165767990Y-98804413D01*
X165776609Y-98750000D01*
X164933012Y-98750000D01*
X164965925Y-98692993D01*
X165000000Y-98565826D01*
X165000000Y-98434174D01*
X164965925Y-98307007D01*
X164933012Y-98250000D01*
X165776609Y-98250000D01*
X165767990Y-98195586D01*
X165704755Y-98000970D01*
X165611859Y-97818650D01*
X165491582Y-97653105D01*
X165491582Y-97653104D01*
X165346895Y-97508417D01*
X165181349Y-97388140D01*
X164999029Y-97295244D01*
X164804413Y-97232009D01*
X164750000Y-97223390D01*
X164750000Y-98066988D01*
X164692993Y-98034075D01*
X164565826Y-98000000D01*
X164434174Y-98000000D01*
X164307007Y-98034075D01*
X164250000Y-98066988D01*
X164250000Y-97223390D01*
X164195586Y-97232009D01*
X164000970Y-97295244D01*
X163818650Y-97388140D01*
X163653105Y-97508417D01*
X163653104Y-97508417D01*
X163508417Y-97653104D01*
X163508417Y-97653105D01*
X163388140Y-97818650D01*
X163295244Y-98000970D01*
X163232009Y-98195586D01*
X163223391Y-98250000D01*
X153009995Y-98250000D01*
X153020000Y-98212661D01*
X153020000Y-98107339D01*
X152992741Y-98005606D01*
X152940080Y-97914394D01*
X152935686Y-97910000D01*
X153896609Y-97910000D01*
X153887990Y-97855586D01*
X153824755Y-97660970D01*
X153731859Y-97478650D01*
X153611582Y-97313105D01*
X153611582Y-97313104D01*
X153466895Y-97168417D01*
X153301349Y-97048140D01*
X153119031Y-96955244D01*
X152958385Y-96903047D01*
X152900710Y-96863609D01*
X152873512Y-96799250D01*
X152885427Y-96730404D01*
X152932671Y-96678928D01*
X152958381Y-96667187D01*
X153042445Y-96639873D01*
X153196788Y-96561232D01*
X153336928Y-96459414D01*
X153459414Y-96336928D01*
X153561232Y-96196788D01*
X153639873Y-96042445D01*
X153693402Y-95877701D01*
X153720500Y-95706611D01*
X153720500Y-95533389D01*
X153693402Y-95362299D01*
X153639873Y-95197555D01*
X153561232Y-95043212D01*
X153554782Y-95034334D01*
X153516327Y-94981405D01*
X153516325Y-94981403D01*
X153485263Y-94938650D01*
X153466910Y-94913389D01*
X165399500Y-94913389D01*
X165399500Y-95086610D01*
X165420626Y-95220000D01*
X165426598Y-95257701D01*
X165480127Y-95422445D01*
X165558768Y-95576788D01*
X165660586Y-95716928D01*
X165783072Y-95839414D01*
X165923212Y-95941232D01*
X166077555Y-96019873D01*
X166242299Y-96073402D01*
X166413389Y-96100500D01*
X166413390Y-96100500D01*
X166586610Y-96100500D01*
X166586611Y-96100500D01*
X166757701Y-96073402D01*
X166922445Y-96019873D01*
X167076788Y-95941232D01*
X167216928Y-95839414D01*
X167339414Y-95716928D01*
X167441232Y-95576788D01*
X167519873Y-95422445D01*
X167573402Y-95257701D01*
X167600500Y-95086611D01*
X167600500Y-94913389D01*
X167573402Y-94742299D01*
X167519873Y-94577555D01*
X167441232Y-94423212D01*
X167339414Y-94283072D01*
X167216928Y-94160586D01*
X167076788Y-94058768D01*
X166956369Y-93997412D01*
X166922447Y-93980128D01*
X166922446Y-93980127D01*
X166922445Y-93980127D01*
X166757701Y-93926598D01*
X166757699Y-93926597D01*
X166757698Y-93926597D01*
X166626271Y-93905781D01*
X166586611Y-93899500D01*
X166413389Y-93899500D01*
X166373728Y-93905781D01*
X166242302Y-93926597D01*
X166077552Y-93980128D01*
X165923211Y-94058768D01*
X165866636Y-94099873D01*
X165783072Y-94160586D01*
X165783070Y-94160588D01*
X165783069Y-94160588D01*
X165660588Y-94283069D01*
X165660588Y-94283070D01*
X165660586Y-94283072D01*
X165648412Y-94299828D01*
X165558768Y-94423211D01*
X165480128Y-94577552D01*
X165426597Y-94742302D01*
X165399500Y-94913389D01*
X153466910Y-94913389D01*
X153459414Y-94903072D01*
X153336928Y-94780586D01*
X153196788Y-94678768D01*
X153042449Y-94600128D01*
X152958385Y-94572814D01*
X152900710Y-94533376D01*
X152873512Y-94469017D01*
X152885427Y-94400171D01*
X152932672Y-94348695D01*
X152958386Y-94336952D01*
X153119029Y-94284755D01*
X153301349Y-94191859D01*
X153466894Y-94071582D01*
X153466895Y-94071582D01*
X153611582Y-93926895D01*
X153611582Y-93926894D01*
X153731859Y-93761349D01*
X153785980Y-93655131D01*
X168899500Y-93655131D01*
X168899500Y-95344856D01*
X168899502Y-95344882D01*
X168902413Y-95369987D01*
X168902415Y-95369991D01*
X168947793Y-95472764D01*
X168947794Y-95472765D01*
X169027235Y-95552206D01*
X169130009Y-95597585D01*
X169155135Y-95600500D01*
X170844864Y-95600499D01*
X170844879Y-95600497D01*
X170844882Y-95600497D01*
X170869987Y-95597586D01*
X170869988Y-95597585D01*
X170869991Y-95597585D01*
X170972765Y-95552206D01*
X171052206Y-95472765D01*
X171097585Y-95369991D01*
X171100500Y-95344865D01*
X171100500Y-94913389D01*
X172399500Y-94913389D01*
X172399500Y-95086610D01*
X172420626Y-95220000D01*
X172426598Y-95257701D01*
X172480127Y-95422445D01*
X172558768Y-95576788D01*
X172660586Y-95716928D01*
X172783072Y-95839414D01*
X172923212Y-95941232D01*
X173077555Y-96019873D01*
X173242299Y-96073402D01*
X173413389Y-96100500D01*
X173413390Y-96100500D01*
X173586610Y-96100500D01*
X173586611Y-96100500D01*
X173757701Y-96073402D01*
X173922445Y-96019873D01*
X174076788Y-95941232D01*
X174216928Y-95839414D01*
X174339414Y-95716928D01*
X174441232Y-95576788D01*
X174519873Y-95422445D01*
X174573402Y-95257701D01*
X174600500Y-95086611D01*
X174600500Y-94913389D01*
X174573402Y-94742299D01*
X174519873Y-94577555D01*
X174441232Y-94423212D01*
X174339414Y-94283072D01*
X174216928Y-94160586D01*
X174076788Y-94058768D01*
X173956369Y-93997412D01*
X173922447Y-93980128D01*
X173922446Y-93980127D01*
X173922445Y-93980127D01*
X173757701Y-93926598D01*
X173757699Y-93926597D01*
X173757698Y-93926597D01*
X173626271Y-93905781D01*
X173586611Y-93899500D01*
X173413389Y-93899500D01*
X173373728Y-93905781D01*
X173242302Y-93926597D01*
X173077552Y-93980128D01*
X172923211Y-94058768D01*
X172866636Y-94099873D01*
X172783072Y-94160586D01*
X172783070Y-94160588D01*
X172783069Y-94160588D01*
X172660588Y-94283069D01*
X172660588Y-94283070D01*
X172660586Y-94283072D01*
X172648412Y-94299828D01*
X172558768Y-94423211D01*
X172480128Y-94577552D01*
X172426597Y-94742302D01*
X172399500Y-94913389D01*
X171100500Y-94913389D01*
X171100499Y-94469017D01*
X171100499Y-93655143D01*
X171100499Y-93655136D01*
X171100497Y-93655117D01*
X171097586Y-93630012D01*
X171097585Y-93630010D01*
X171097585Y-93630009D01*
X171052206Y-93527235D01*
X170972765Y-93447794D01*
X170888497Y-93410586D01*
X170869992Y-93402415D01*
X170844865Y-93399500D01*
X169155143Y-93399500D01*
X169155117Y-93399502D01*
X169130012Y-93402413D01*
X169130008Y-93402415D01*
X169027235Y-93447793D01*
X168947794Y-93527234D01*
X168902415Y-93630006D01*
X168902415Y-93630008D01*
X168899500Y-93655131D01*
X153785980Y-93655131D01*
X153816487Y-93595259D01*
X153816487Y-93595258D01*
X153824755Y-93579030D01*
X153887990Y-93384413D01*
X153896609Y-93330000D01*
X152935686Y-93330000D01*
X152940080Y-93325606D01*
X152992741Y-93234394D01*
X153020000Y-93132661D01*
X153020000Y-93027339D01*
X152992741Y-92925606D01*
X152940080Y-92834394D01*
X152935686Y-92830000D01*
X153896609Y-92830000D01*
X153887990Y-92775586D01*
X153824755Y-92580970D01*
X153731859Y-92398650D01*
X153611582Y-92233105D01*
X153611582Y-92233104D01*
X153466895Y-92088417D01*
X153301349Y-91968140D01*
X153207820Y-91920485D01*
X153157024Y-91872511D01*
X153140229Y-91804690D01*
X153162766Y-91738555D01*
X153207820Y-91699515D01*
X153301349Y-91651859D01*
X153466894Y-91531582D01*
X153466895Y-91531582D01*
X153611582Y-91386895D01*
X153611582Y-91386894D01*
X153731859Y-91221349D01*
X153824755Y-91039029D01*
X153887990Y-90844413D01*
X153896609Y-90790000D01*
X152935686Y-90790000D01*
X152940080Y-90785606D01*
X152992741Y-90694394D01*
X153020000Y-90592661D01*
X153020000Y-90487339D01*
X152992741Y-90385606D01*
X152940080Y-90294394D01*
X152935686Y-90290000D01*
X153896609Y-90290000D01*
X153887990Y-90235586D01*
X153824755Y-90040970D01*
X153731859Y-89858650D01*
X153611582Y-89693105D01*
X153611582Y-89693104D01*
X153466895Y-89548417D01*
X153301349Y-89428140D01*
X153188205Y-89370490D01*
X153177140Y-89360040D01*
X153163297Y-89353718D01*
X153152255Y-89336537D01*
X153137409Y-89322515D01*
X153133167Y-89306835D01*
X153125523Y-89294940D01*
X153120500Y-89260005D01*
X153120500Y-89056089D01*
X153140185Y-88989050D01*
X153188206Y-88945604D01*
X153196788Y-88941232D01*
X153336928Y-88839414D01*
X153459414Y-88716928D01*
X153561232Y-88576788D01*
X153639873Y-88422445D01*
X153693402Y-88257701D01*
X153720500Y-88086611D01*
X153720500Y-87913389D01*
X153693402Y-87742299D01*
X153639873Y-87577555D01*
X153561232Y-87423212D01*
X153459414Y-87283072D01*
X153336928Y-87160586D01*
X153196788Y-87058768D01*
X153042445Y-86980127D01*
X152877701Y-86926598D01*
X152877699Y-86926597D01*
X152877698Y-86926597D01*
X152746271Y-86905781D01*
X152706611Y-86899500D01*
X152533389Y-86899500D01*
X152493728Y-86905781D01*
X152362302Y-86926597D01*
X152197552Y-86980128D01*
X152043211Y-87058768D01*
X151963256Y-87116859D01*
X151903072Y-87160586D01*
X151903070Y-87160588D01*
X151903069Y-87160588D01*
X151780588Y-87283069D01*
X151780588Y-87283070D01*
X151780586Y-87283072D01*
X151780584Y-87283075D01*
X151678768Y-87423211D01*
X151600128Y-87577552D01*
X151546597Y-87742302D01*
X151519500Y-87913389D01*
X151519500Y-88086611D01*
X151546598Y-88257701D01*
X151600127Y-88422445D01*
X151678768Y-88576788D01*
X151780586Y-88716928D01*
X151780588Y-88716930D01*
X151814341Y-88750683D01*
X151847826Y-88812006D01*
X151842842Y-88881698D01*
X151814341Y-88926045D01*
X149599502Y-91140883D01*
X149599500Y-91140886D01*
X149533608Y-91255012D01*
X149499500Y-91382308D01*
X149499500Y-106775500D01*
X149479815Y-106842539D01*
X149427011Y-106888294D01*
X149375501Y-106899500D01*
X149155143Y-106899500D01*
X149155117Y-106899502D01*
X149130012Y-106902413D01*
X149130008Y-106902415D01*
X149027235Y-106947793D01*
X148947794Y-107027234D01*
X148902415Y-107130006D01*
X148902415Y-107130008D01*
X148899500Y-107155131D01*
X143594859Y-107155131D01*
X143569727Y-107120540D01*
X143569723Y-107120535D01*
X143419464Y-106970276D01*
X143419459Y-106970272D01*
X143247557Y-106845379D01*
X143058215Y-106748903D01*
X142856124Y-106683241D01*
X142790000Y-106672768D01*
X142790000Y-107566988D01*
X142732993Y-107534075D01*
X142605826Y-107500000D01*
X142474174Y-107500000D01*
X142347007Y-107534075D01*
X142290000Y-107566988D01*
X142290000Y-106672768D01*
X142289999Y-106672768D01*
X142223875Y-106683241D01*
X142021784Y-106748903D01*
X141832442Y-106845379D01*
X141660540Y-106970272D01*
X141660535Y-106970276D01*
X141510276Y-107120535D01*
X141510272Y-107120540D01*
X141385376Y-107292445D01*
X141384981Y-107293222D01*
X141384752Y-107293463D01*
X141382832Y-107296598D01*
X141382173Y-107296194D01*
X141337004Y-107344016D01*
X141269183Y-107360808D01*
X141203049Y-107338267D01*
X141159600Y-107283550D01*
X141150499Y-107236922D01*
X141150499Y-107105143D01*
X141150499Y-107105136D01*
X141150497Y-107105117D01*
X141147586Y-107080012D01*
X141147585Y-107080010D01*
X141147585Y-107080009D01*
X141102206Y-106977235D01*
X141022765Y-106897794D01*
X141022763Y-106897793D01*
X140919992Y-106852415D01*
X140894865Y-106849500D01*
X139105143Y-106849500D01*
X139105117Y-106849502D01*
X139080012Y-106852413D01*
X139080008Y-106852415D01*
X138977235Y-106897793D01*
X138897794Y-106977234D01*
X138852415Y-107080006D01*
X138852415Y-107080008D01*
X138849500Y-107105131D01*
X100075500Y-107105131D01*
X100075500Y-101301995D01*
X101119500Y-101301995D01*
X101119500Y-101538004D01*
X101119501Y-101538020D01*
X101149593Y-101766597D01*
X101150307Y-101772014D01*
X101163199Y-101820127D01*
X101211394Y-101999993D01*
X101301714Y-102218045D01*
X101301719Y-102218056D01*
X101348319Y-102298768D01*
X101419727Y-102422450D01*
X101419729Y-102422453D01*
X101419730Y-102422454D01*
X101563406Y-102609697D01*
X101563412Y-102609704D01*
X101730295Y-102776587D01*
X101730302Y-102776593D01*
X101783681Y-102817552D01*
X101917550Y-102920273D01*
X102038321Y-102990000D01*
X102121943Y-103038280D01*
X102121948Y-103038282D01*
X102121951Y-103038284D01*
X102340007Y-103128606D01*
X102567986Y-103189693D01*
X102801989Y-103220500D01*
X102801996Y-103220500D01*
X103038004Y-103220500D01*
X103038011Y-103220500D01*
X103272014Y-103189693D01*
X103499993Y-103128606D01*
X103718049Y-103038284D01*
X103922450Y-102920273D01*
X104109699Y-102776592D01*
X104132902Y-102753389D01*
X108284500Y-102753389D01*
X108284500Y-102926610D01*
X108309841Y-103086611D01*
X108311598Y-103097701D01*
X108365127Y-103262445D01*
X108443768Y-103416788D01*
X108545586Y-103556928D01*
X108668072Y-103679414D01*
X108808212Y-103781232D01*
X108962555Y-103859873D01*
X109127299Y-103913402D01*
X109298389Y-103940500D01*
X109298390Y-103940500D01*
X109471610Y-103940500D01*
X109471611Y-103940500D01*
X109642701Y-103913402D01*
X109807445Y-103859873D01*
X109961788Y-103781232D01*
X110101928Y-103679414D01*
X110224414Y-103556928D01*
X110326232Y-103416788D01*
X110404873Y-103262445D01*
X110458402Y-103097701D01*
X110485500Y-102926611D01*
X110485500Y-102753389D01*
X111054500Y-102753389D01*
X111054500Y-102926610D01*
X111079841Y-103086611D01*
X111081598Y-103097701D01*
X111135127Y-103262445D01*
X111213768Y-103416788D01*
X111315586Y-103556928D01*
X111438072Y-103679414D01*
X111578212Y-103781232D01*
X111732555Y-103859873D01*
X111897299Y-103913402D01*
X112068389Y-103940500D01*
X112068390Y-103940500D01*
X112241610Y-103940500D01*
X112241611Y-103940500D01*
X112412701Y-103913402D01*
X112577445Y-103859873D01*
X112731788Y-103781232D01*
X112871928Y-103679414D01*
X112994414Y-103556928D01*
X113096232Y-103416788D01*
X113174873Y-103262445D01*
X113228402Y-103097701D01*
X113255500Y-102926611D01*
X113255500Y-102753389D01*
X113824500Y-102753389D01*
X113824500Y-102926610D01*
X113849841Y-103086611D01*
X113851598Y-103097701D01*
X113905127Y-103262445D01*
X113983768Y-103416788D01*
X114085586Y-103556928D01*
X114208072Y-103679414D01*
X114348212Y-103781232D01*
X114502555Y-103859873D01*
X114667299Y-103913402D01*
X114838389Y-103940500D01*
X114838390Y-103940500D01*
X115011610Y-103940500D01*
X115011611Y-103940500D01*
X115182701Y-103913402D01*
X115347445Y-103859873D01*
X115501788Y-103781232D01*
X115641928Y-103679414D01*
X115764414Y-103556928D01*
X115866232Y-103416788D01*
X115944873Y-103262445D01*
X115998402Y-103097701D01*
X116025500Y-102926611D01*
X116025500Y-102753389D01*
X116594500Y-102753389D01*
X116594500Y-102926610D01*
X116619841Y-103086611D01*
X116621598Y-103097701D01*
X116675127Y-103262445D01*
X116753768Y-103416788D01*
X116855586Y-103556928D01*
X116978072Y-103679414D01*
X117118212Y-103781232D01*
X117272555Y-103859873D01*
X117437299Y-103913402D01*
X117608389Y-103940500D01*
X117608390Y-103940500D01*
X117781610Y-103940500D01*
X117781611Y-103940500D01*
X117952701Y-103913402D01*
X118117445Y-103859873D01*
X118271788Y-103781232D01*
X118411928Y-103679414D01*
X118534414Y-103556928D01*
X118636232Y-103416788D01*
X118640607Y-103408202D01*
X118688582Y-103357408D01*
X118751090Y-103340500D01*
X118962590Y-103340500D01*
X118962592Y-103340500D01*
X119089886Y-103306392D01*
X119204014Y-103240500D01*
X121142519Y-101301995D01*
X122359500Y-101301995D01*
X122359500Y-101538004D01*
X122359501Y-101538020D01*
X122389593Y-101766597D01*
X122390307Y-101772014D01*
X122403199Y-101820127D01*
X122451394Y-101999993D01*
X122541714Y-102218045D01*
X122541719Y-102218056D01*
X122588319Y-102298768D01*
X122659727Y-102422450D01*
X122659729Y-102422453D01*
X122659730Y-102422454D01*
X122803406Y-102609697D01*
X122803412Y-102609704D01*
X122970295Y-102776587D01*
X122970302Y-102776593D01*
X123023681Y-102817552D01*
X123157550Y-102920273D01*
X123278321Y-102990000D01*
X123361943Y-103038280D01*
X123361948Y-103038282D01*
X123361951Y-103038284D01*
X123580007Y-103128606D01*
X123807986Y-103189693D01*
X124041989Y-103220500D01*
X124041996Y-103220500D01*
X124278004Y-103220500D01*
X124278011Y-103220500D01*
X124512014Y-103189693D01*
X124739993Y-103128606D01*
X124958049Y-103038284D01*
X125162450Y-102920273D01*
X125349699Y-102776592D01*
X125516592Y-102609699D01*
X125660273Y-102422450D01*
X125778284Y-102218049D01*
X125868606Y-101999993D01*
X125929693Y-101772014D01*
X125960500Y-101538011D01*
X125960500Y-101301989D01*
X125929693Y-101067986D01*
X125868606Y-100840007D01*
X125778284Y-100621951D01*
X125778282Y-100621948D01*
X125778280Y-100621943D01*
X125708164Y-100500500D01*
X125660273Y-100417550D01*
X125575686Y-100307314D01*
X125516593Y-100230302D01*
X125516587Y-100230295D01*
X125349704Y-100063412D01*
X125349697Y-100063406D01*
X125162454Y-99919730D01*
X125162453Y-99919729D01*
X125162450Y-99919727D01*
X125080957Y-99872677D01*
X124958056Y-99801719D01*
X124958045Y-99801714D01*
X124739993Y-99711394D01*
X124512010Y-99650306D01*
X124278020Y-99619501D01*
X124278017Y-99619500D01*
X124278011Y-99619500D01*
X124041989Y-99619500D01*
X124041983Y-99619500D01*
X124041979Y-99619501D01*
X123807989Y-99650306D01*
X123580006Y-99711394D01*
X123361954Y-99801714D01*
X123361943Y-99801719D01*
X123170909Y-99912014D01*
X123158363Y-99919258D01*
X123157545Y-99919730D01*
X122970302Y-100063406D01*
X122970295Y-100063412D01*
X122803412Y-100230295D01*
X122803406Y-100230302D01*
X122659730Y-100417545D01*
X122541719Y-100621943D01*
X122541714Y-100621954D01*
X122451394Y-100840006D01*
X122390306Y-101067989D01*
X122359501Y-101301979D01*
X122359500Y-101301995D01*
X121142519Y-101301995D01*
X128519300Y-93925214D01*
X128585192Y-93811086D01*
X128619300Y-93683792D01*
X128619300Y-93552007D01*
X128619300Y-92699834D01*
X128621914Y-92688289D01*
X128620879Y-92680106D01*
X128628828Y-92657754D01*
X128631396Y-92646415D01*
X128633482Y-92642044D01*
X128670222Y-92578408D01*
X130223400Y-92578408D01*
X130223400Y-105454691D01*
X130257508Y-105581987D01*
X130290454Y-105639050D01*
X130323400Y-105696114D01*
X130323402Y-105696116D01*
X130475547Y-105848261D01*
X130507640Y-105903847D01*
X130529621Y-105985879D01*
X130529626Y-105985890D01*
X130608675Y-106122809D01*
X130608679Y-106122814D01*
X130608680Y-106122816D01*
X130720484Y-106234620D01*
X130720486Y-106234621D01*
X130720490Y-106234624D01*
X130857409Y-106313673D01*
X130857416Y-106313677D01*
X131010143Y-106354600D01*
X131010145Y-106354600D01*
X131168255Y-106354600D01*
X131168257Y-106354600D01*
X131320984Y-106313677D01*
X131457916Y-106234620D01*
X131569720Y-106122816D01*
X131648777Y-105985884D01*
X131689700Y-105833157D01*
X131689700Y-105675043D01*
X131648777Y-105522316D01*
X131585911Y-105413428D01*
X131569724Y-105385390D01*
X131569718Y-105385382D01*
X131457917Y-105273581D01*
X131457909Y-105273575D01*
X131320990Y-105194526D01*
X131320986Y-105194524D01*
X131320984Y-105194523D01*
X131320982Y-105194522D01*
X131320979Y-105194521D01*
X131316305Y-105193269D01*
X131256645Y-105156904D01*
X131226117Y-105094057D01*
X131224400Y-105073495D01*
X131224400Y-104506186D01*
X131244085Y-104439147D01*
X131296889Y-104393392D01*
X131366047Y-104383448D01*
X131404695Y-104395701D01*
X131500968Y-104444755D01*
X131695578Y-104507988D01*
X131750000Y-104516607D01*
X131750000Y-103555686D01*
X131754394Y-103560080D01*
X131845606Y-103612741D01*
X131947339Y-103640000D01*
X132052661Y-103640000D01*
X132154394Y-103612741D01*
X132245606Y-103560080D01*
X132250000Y-103555686D01*
X132250000Y-104516606D01*
X132304421Y-104507988D01*
X132499031Y-104444754D01*
X132681349Y-104351859D01*
X132846891Y-104231585D01*
X132987537Y-104090939D01*
X133048860Y-104057454D01*
X133118552Y-104062438D01*
X133174486Y-104104309D01*
X133182606Y-104116619D01*
X133206680Y-104158316D01*
X133318484Y-104270120D01*
X133318486Y-104270121D01*
X133318490Y-104270124D01*
X133380116Y-104305703D01*
X133455416Y-104349177D01*
X133608143Y-104390100D01*
X133608145Y-104390100D01*
X133766255Y-104390100D01*
X133766257Y-104390100D01*
X133918984Y-104349177D01*
X134055916Y-104270120D01*
X134167720Y-104158316D01*
X134246777Y-104021384D01*
X134287700Y-103868657D01*
X134287700Y-103710543D01*
X134246777Y-103557816D01*
X134204312Y-103484263D01*
X134187700Y-103422264D01*
X134187700Y-103153389D01*
X138519500Y-103153389D01*
X138519500Y-103326610D01*
X138544469Y-103484263D01*
X138546598Y-103497701D01*
X138600127Y-103662445D01*
X138678768Y-103816788D01*
X138780586Y-103956928D01*
X138903072Y-104079414D01*
X139043212Y-104181232D01*
X139197555Y-104259873D01*
X139362299Y-104313402D01*
X139533389Y-104340500D01*
X139533390Y-104340500D01*
X139706610Y-104340500D01*
X139706611Y-104340500D01*
X139877701Y-104313402D01*
X140042445Y-104259873D01*
X140196788Y-104181232D01*
X140336928Y-104079414D01*
X140459414Y-103956928D01*
X140561232Y-103816788D01*
X140639873Y-103662445D01*
X140693402Y-103497701D01*
X140695531Y-103484263D01*
X140703564Y-103433540D01*
X140703564Y-103433539D01*
X140706217Y-103416792D01*
X140720500Y-103326611D01*
X140720500Y-103153389D01*
X140693402Y-102982299D01*
X140639873Y-102817555D01*
X140561232Y-102663212D01*
X140459414Y-102523072D01*
X140336928Y-102400586D01*
X140196788Y-102298768D01*
X140042445Y-102220127D01*
X139877701Y-102166598D01*
X139877699Y-102166597D01*
X139877698Y-102166597D01*
X139746271Y-102145781D01*
X139706611Y-102139500D01*
X139533389Y-102139500D01*
X139493728Y-102145781D01*
X139362302Y-102166597D01*
X139197552Y-102220128D01*
X139043211Y-102298768D01*
X138987149Y-102339500D01*
X138903072Y-102400586D01*
X138903070Y-102400588D01*
X138903069Y-102400588D01*
X138780588Y-102523069D01*
X138780588Y-102523070D01*
X138780586Y-102523072D01*
X138772592Y-102534075D01*
X138678768Y-102663211D01*
X138600128Y-102817552D01*
X138546597Y-102982302D01*
X138519500Y-103153389D01*
X134187700Y-103153389D01*
X134187700Y-100613389D01*
X138519500Y-100613389D01*
X138519500Y-100786610D01*
X138543989Y-100941232D01*
X138546598Y-100957701D01*
X138600127Y-101122445D01*
X138678768Y-101276788D01*
X138780586Y-101416928D01*
X138903072Y-101539414D01*
X139043212Y-101641232D01*
X139197555Y-101719873D01*
X139362299Y-101773402D01*
X139533389Y-101800500D01*
X139533390Y-101800500D01*
X139706610Y-101800500D01*
X139706611Y-101800500D01*
X139877701Y-101773402D01*
X140042445Y-101719873D01*
X140196788Y-101641232D01*
X140336928Y-101539414D01*
X140459414Y-101416928D01*
X140561232Y-101276788D01*
X140639873Y-101122445D01*
X140693402Y-100957701D01*
X140720500Y-100786611D01*
X140720500Y-100613389D01*
X140693402Y-100442299D01*
X140639873Y-100277555D01*
X140561232Y-100123212D01*
X140459414Y-99983072D01*
X140336928Y-99860586D01*
X140196788Y-99758768D01*
X140116208Y-99717711D01*
X140042447Y-99680128D01*
X140042446Y-99680127D01*
X140042445Y-99680127D01*
X139877701Y-99626598D01*
X139877699Y-99626597D01*
X139877698Y-99626597D01*
X139746271Y-99605781D01*
X139706611Y-99599500D01*
X139533389Y-99599500D01*
X139493728Y-99605781D01*
X139362302Y-99626597D01*
X139197552Y-99680128D01*
X139043211Y-99758768D01*
X139008969Y-99783647D01*
X138903072Y-99860586D01*
X138903070Y-99860588D01*
X138903069Y-99860588D01*
X138780588Y-99983069D01*
X138780588Y-99983070D01*
X138780586Y-99983072D01*
X138773855Y-99992337D01*
X138678768Y-100123211D01*
X138600128Y-100277552D01*
X138546597Y-100442302D01*
X138519500Y-100613389D01*
X134187700Y-100613389D01*
X134187700Y-100059376D01*
X134207385Y-99992337D01*
X134224019Y-99971695D01*
X136122325Y-98073389D01*
X138519500Y-98073389D01*
X138519500Y-98246611D01*
X138546598Y-98417701D01*
X138600127Y-98582445D01*
X138678768Y-98736788D01*
X138780586Y-98876928D01*
X138903072Y-98999414D01*
X139043212Y-99101232D01*
X139197555Y-99179873D01*
X139362299Y-99233402D01*
X139533389Y-99260500D01*
X139533390Y-99260500D01*
X139706610Y-99260500D01*
X139706611Y-99260500D01*
X139877701Y-99233402D01*
X140042445Y-99179873D01*
X140196788Y-99101232D01*
X140336928Y-98999414D01*
X140459414Y-98876928D01*
X140561232Y-98736788D01*
X140639873Y-98582445D01*
X140693402Y-98417701D01*
X140720500Y-98246611D01*
X140720500Y-98073389D01*
X140693402Y-97902299D01*
X140639873Y-97737555D01*
X140561232Y-97583212D01*
X140459414Y-97443072D01*
X140336928Y-97320586D01*
X140196788Y-97218768D01*
X140042445Y-97140127D01*
X139877701Y-97086598D01*
X139877699Y-97086597D01*
X139877698Y-97086597D01*
X139746271Y-97065781D01*
X139706611Y-97059500D01*
X139533389Y-97059500D01*
X139493728Y-97065781D01*
X139362302Y-97086597D01*
X139197552Y-97140128D01*
X139043211Y-97218768D01*
X139030754Y-97227819D01*
X138903072Y-97320586D01*
X138903070Y-97320588D01*
X138903069Y-97320588D01*
X138780588Y-97443069D01*
X138780588Y-97443070D01*
X138780586Y-97443072D01*
X138754737Y-97478650D01*
X138678768Y-97583211D01*
X138600128Y-97737552D01*
X138546597Y-97902302D01*
X138530970Y-98000970D01*
X138519500Y-98073389D01*
X136122325Y-98073389D01*
X136214878Y-97980836D01*
X137243203Y-96952511D01*
X138347460Y-95848253D01*
X138408781Y-95814770D01*
X138478473Y-95819754D01*
X138534406Y-95861626D01*
X138553068Y-95897615D01*
X138600127Y-96042445D01*
X138678768Y-96196788D01*
X138780586Y-96336928D01*
X138903072Y-96459414D01*
X139043212Y-96561232D01*
X139197555Y-96639873D01*
X139362299Y-96693402D01*
X139533389Y-96720500D01*
X139533390Y-96720500D01*
X139706610Y-96720500D01*
X139706611Y-96720500D01*
X139877701Y-96693402D01*
X140042445Y-96639873D01*
X140196788Y-96561232D01*
X140336928Y-96459414D01*
X140459414Y-96336928D01*
X140561232Y-96196788D01*
X140639873Y-96042445D01*
X140693402Y-95877701D01*
X140720500Y-95706611D01*
X140720500Y-95533389D01*
X140694622Y-95370000D01*
X143723391Y-95370000D01*
X144684314Y-95370000D01*
X144679920Y-95374394D01*
X144627259Y-95465606D01*
X144600000Y-95567339D01*
X144600000Y-95672661D01*
X144627259Y-95774394D01*
X144679920Y-95865606D01*
X144684314Y-95870000D01*
X143723391Y-95870000D01*
X143732009Y-95924413D01*
X143795244Y-96119029D01*
X143888140Y-96301349D01*
X144008417Y-96466894D01*
X144008417Y-96466895D01*
X144153104Y-96611582D01*
X144318650Y-96731859D01*
X144412179Y-96779515D01*
X144462975Y-96827490D01*
X144479770Y-96895311D01*
X144457232Y-96961446D01*
X144412179Y-97000485D01*
X144318650Y-97048140D01*
X144153105Y-97168417D01*
X144153104Y-97168417D01*
X144008417Y-97313104D01*
X144008417Y-97313105D01*
X143888140Y-97478650D01*
X143795244Y-97660970D01*
X143732009Y-97855586D01*
X143723391Y-97910000D01*
X144684314Y-97910000D01*
X144679920Y-97914394D01*
X144627259Y-98005606D01*
X144600000Y-98107339D01*
X144600000Y-98212661D01*
X144627259Y-98314394D01*
X144679920Y-98405606D01*
X144684314Y-98410000D01*
X143723391Y-98410000D01*
X143732009Y-98464413D01*
X143795244Y-98659029D01*
X143888140Y-98841349D01*
X144008417Y-99006894D01*
X144008417Y-99006895D01*
X144153104Y-99151582D01*
X144318650Y-99271859D01*
X144500970Y-99364755D01*
X144661613Y-99416952D01*
X144719289Y-99456390D01*
X144746487Y-99520748D01*
X144734572Y-99589595D01*
X144687328Y-99641070D01*
X144661615Y-99652814D01*
X144577549Y-99680129D01*
X144423211Y-99758768D01*
X144388969Y-99783647D01*
X144283072Y-99860586D01*
X144283070Y-99860588D01*
X144283069Y-99860588D01*
X144160588Y-99983069D01*
X144160588Y-99983070D01*
X144160586Y-99983072D01*
X144153855Y-99992337D01*
X144058768Y-100123211D01*
X143980128Y-100277552D01*
X143926597Y-100442302D01*
X143899500Y-100613389D01*
X143899500Y-100786610D01*
X143923989Y-100941232D01*
X143926598Y-100957701D01*
X143980127Y-101122445D01*
X144058768Y-101276788D01*
X144160586Y-101416928D01*
X144283072Y-101539414D01*
X144423212Y-101641232D01*
X144577555Y-101719873D01*
X144661613Y-101747185D01*
X144719289Y-101786623D01*
X144746487Y-101850981D01*
X144734572Y-101919828D01*
X144687328Y-101971303D01*
X144661614Y-101983047D01*
X144500968Y-102035244D01*
X144318650Y-102128140D01*
X144153105Y-102248417D01*
X144153104Y-102248417D01*
X144008417Y-102393104D01*
X144008417Y-102393105D01*
X143888140Y-102558650D01*
X143795244Y-102740970D01*
X143732009Y-102935586D01*
X143723391Y-102990000D01*
X144684314Y-102990000D01*
X144679920Y-102994394D01*
X144627259Y-103085606D01*
X144600000Y-103187339D01*
X144600000Y-103292661D01*
X144627259Y-103394394D01*
X144679920Y-103485606D01*
X144684314Y-103490000D01*
X143723391Y-103490000D01*
X143732009Y-103544413D01*
X143795244Y-103739029D01*
X143888140Y-103921349D01*
X144008417Y-104086894D01*
X144008417Y-104086895D01*
X144153104Y-104231582D01*
X144318650Y-104351859D01*
X144500968Y-104444754D01*
X144695578Y-104507988D01*
X144750000Y-104516607D01*
X144750000Y-103555686D01*
X144754394Y-103560080D01*
X144845606Y-103612741D01*
X144947339Y-103640000D01*
X145052661Y-103640000D01*
X145154394Y-103612741D01*
X145245606Y-103560080D01*
X145250000Y-103555686D01*
X145250000Y-104516606D01*
X145304421Y-104507988D01*
X145499031Y-104444754D01*
X145681349Y-104351859D01*
X145846894Y-104231582D01*
X145846895Y-104231582D01*
X145991582Y-104086895D01*
X145991582Y-104086894D01*
X146111859Y-103921349D01*
X146204755Y-103739029D01*
X146267990Y-103544413D01*
X146276609Y-103490000D01*
X145315686Y-103490000D01*
X145320080Y-103485606D01*
X145372741Y-103394394D01*
X145400000Y-103292661D01*
X145400000Y-103187339D01*
X145372741Y-103085606D01*
X145320080Y-102994394D01*
X145315686Y-102990000D01*
X146276609Y-102990000D01*
X146267990Y-102935586D01*
X146204755Y-102740970D01*
X146111859Y-102558650D01*
X145991582Y-102393105D01*
X145991582Y-102393104D01*
X145846895Y-102248417D01*
X145681349Y-102128140D01*
X145499031Y-102035244D01*
X145338385Y-101983047D01*
X145280710Y-101943609D01*
X145253512Y-101879250D01*
X145265427Y-101810404D01*
X145312671Y-101758928D01*
X145338381Y-101747187D01*
X145422445Y-101719873D01*
X145576788Y-101641232D01*
X145716928Y-101539414D01*
X145839414Y-101416928D01*
X145941232Y-101276788D01*
X146019873Y-101122445D01*
X146073402Y-100957701D01*
X146100500Y-100786611D01*
X146100500Y-100613389D01*
X146073402Y-100442299D01*
X146019873Y-100277555D01*
X145941232Y-100123212D01*
X145839414Y-99983072D01*
X145716928Y-99860586D01*
X145576788Y-99758768D01*
X145559580Y-99750000D01*
X145422449Y-99680128D01*
X145338385Y-99652814D01*
X145280710Y-99613376D01*
X145253512Y-99549017D01*
X145265427Y-99480171D01*
X145312672Y-99428695D01*
X145338386Y-99416952D01*
X145499029Y-99364755D01*
X145681349Y-99271859D01*
X145846894Y-99151582D01*
X145846895Y-99151582D01*
X145991582Y-99006895D01*
X145991582Y-99006894D01*
X146111859Y-98841349D01*
X146204755Y-98659029D01*
X146267990Y-98464413D01*
X146276609Y-98410000D01*
X145315686Y-98410000D01*
X145320080Y-98405606D01*
X145372741Y-98314394D01*
X145400000Y-98212661D01*
X145400000Y-98107339D01*
X145372741Y-98005606D01*
X145320080Y-97914394D01*
X145315686Y-97910000D01*
X146276609Y-97910000D01*
X146267990Y-97855586D01*
X146204755Y-97660970D01*
X146111859Y-97478650D01*
X145991582Y-97313105D01*
X145991582Y-97313104D01*
X145846895Y-97168417D01*
X145681349Y-97048140D01*
X145587820Y-97000485D01*
X145537024Y-96952511D01*
X145520229Y-96884690D01*
X145542766Y-96818555D01*
X145587820Y-96779515D01*
X145681349Y-96731859D01*
X145846894Y-96611582D01*
X145846895Y-96611582D01*
X145991582Y-96466895D01*
X145991582Y-96466894D01*
X146111859Y-96301349D01*
X146204755Y-96119029D01*
X146267990Y-95924413D01*
X146276609Y-95870000D01*
X145315686Y-95870000D01*
X145320080Y-95865606D01*
X145372741Y-95774394D01*
X145400000Y-95672661D01*
X145400000Y-95567339D01*
X145372741Y-95465606D01*
X145320080Y-95374394D01*
X145315686Y-95370000D01*
X146276609Y-95370000D01*
X146267990Y-95315586D01*
X146204755Y-95120970D01*
X146111859Y-94938650D01*
X145991582Y-94773105D01*
X145991582Y-94773104D01*
X145846895Y-94628417D01*
X145681349Y-94508140D01*
X145499031Y-94415244D01*
X145338385Y-94363047D01*
X145280710Y-94323609D01*
X145253512Y-94259250D01*
X145265427Y-94190404D01*
X145312671Y-94138928D01*
X145338381Y-94127187D01*
X145422445Y-94099873D01*
X145576788Y-94021232D01*
X145716928Y-93919414D01*
X145839414Y-93796928D01*
X145941232Y-93656788D01*
X146019873Y-93502445D01*
X146073402Y-93337701D01*
X146100500Y-93166611D01*
X146100500Y-92993389D01*
X146073402Y-92822299D01*
X146019873Y-92657555D01*
X145941232Y-92503212D01*
X145839414Y-92363072D01*
X145716928Y-92240586D01*
X145576788Y-92138768D01*
X145422445Y-92060127D01*
X145257701Y-92006598D01*
X145257699Y-92006597D01*
X145257698Y-92006597D01*
X145126271Y-91985781D01*
X145086611Y-91979500D01*
X144913389Y-91979500D01*
X144873728Y-91985781D01*
X144742302Y-92006597D01*
X144577552Y-92060128D01*
X144423211Y-92138768D01*
X144343256Y-92196859D01*
X144283072Y-92240586D01*
X144283070Y-92240588D01*
X144283069Y-92240588D01*
X144160588Y-92363069D01*
X144160588Y-92363070D01*
X144160586Y-92363072D01*
X144116859Y-92423256D01*
X144058768Y-92503211D01*
X143980128Y-92657552D01*
X143926597Y-92822302D01*
X143921520Y-92854358D01*
X143899500Y-92993389D01*
X143899500Y-93166611D01*
X143926598Y-93337701D01*
X143980127Y-93502445D01*
X144058768Y-93656788D01*
X144160586Y-93796928D01*
X144283072Y-93919414D01*
X144423212Y-94021232D01*
X144577555Y-94099873D01*
X144661613Y-94127185D01*
X144719289Y-94166623D01*
X144746487Y-94230981D01*
X144734572Y-94299828D01*
X144687328Y-94351303D01*
X144661614Y-94363047D01*
X144500968Y-94415244D01*
X144318650Y-94508140D01*
X144153105Y-94628417D01*
X144153104Y-94628417D01*
X144008417Y-94773104D01*
X144008417Y-94773105D01*
X143888140Y-94938650D01*
X143795244Y-95120970D01*
X143732009Y-95315586D01*
X143723391Y-95370000D01*
X140694622Y-95370000D01*
X140694621Y-95369993D01*
X140693403Y-95362303D01*
X140693402Y-95362302D01*
X140693402Y-95362299D01*
X140639873Y-95197555D01*
X140561232Y-95043212D01*
X140459414Y-94903072D01*
X140459410Y-94903068D01*
X140425358Y-94869015D01*
X140391873Y-94807691D01*
X140396859Y-94738000D01*
X140425357Y-94693656D01*
X143932315Y-91186697D01*
X143993636Y-91153214D01*
X144063328Y-91158198D01*
X144119261Y-91200070D01*
X144120274Y-91201443D01*
X144160586Y-91256928D01*
X144283072Y-91379414D01*
X144423212Y-91481232D01*
X144577555Y-91559873D01*
X144742299Y-91613402D01*
X144913389Y-91640500D01*
X144913390Y-91640500D01*
X145086610Y-91640500D01*
X145086611Y-91640500D01*
X145257701Y-91613402D01*
X145422445Y-91559873D01*
X145576788Y-91481232D01*
X145716928Y-91379414D01*
X145839414Y-91256928D01*
X145941232Y-91116788D01*
X146019873Y-90962445D01*
X146073402Y-90797701D01*
X146100500Y-90626611D01*
X146100500Y-90453389D01*
X146073402Y-90282299D01*
X146019873Y-90117555D01*
X145941232Y-89963212D01*
X145839414Y-89823072D01*
X145716928Y-89700586D01*
X145581512Y-89602200D01*
X145576786Y-89598766D01*
X145516958Y-89568283D01*
X145466161Y-89520309D01*
X145449366Y-89452488D01*
X145452140Y-89431194D01*
X145456261Y-89412433D01*
X145466392Y-89394886D01*
X145500500Y-89267592D01*
X145500500Y-89211042D01*
X145503388Y-89197895D01*
X145513980Y-89178588D01*
X145520185Y-89157460D01*
X145530457Y-89148558D01*
X145536997Y-89136640D01*
X145556348Y-89126123D01*
X145572989Y-89111705D01*
X145589487Y-89108115D01*
X145598388Y-89103279D01*
X145608351Y-89104012D01*
X145624500Y-89100499D01*
X145844856Y-89100499D01*
X145844864Y-89100499D01*
X145844879Y-89100497D01*
X145844882Y-89100497D01*
X145869987Y-89097586D01*
X145869988Y-89097585D01*
X145869991Y-89097585D01*
X145972765Y-89052206D01*
X146052206Y-88972765D01*
X146097585Y-88869991D01*
X146100500Y-88844865D01*
X146100499Y-87155136D01*
X146100497Y-87155117D01*
X146097586Y-87130012D01*
X146097585Y-87130010D01*
X146097585Y-87130009D01*
X146052206Y-87027235D01*
X145972765Y-86947794D01*
X145963966Y-86943909D01*
X145869992Y-86902415D01*
X145844865Y-86899500D01*
X144155143Y-86899500D01*
X144155117Y-86899502D01*
X144130012Y-86902413D01*
X144130008Y-86902415D01*
X144027235Y-86947793D01*
X143947794Y-87027234D01*
X143902415Y-87130006D01*
X143902415Y-87130008D01*
X143899500Y-87155131D01*
X143899500Y-88844856D01*
X143899502Y-88844882D01*
X143902413Y-88869987D01*
X143902415Y-88869991D01*
X143947793Y-88972764D01*
X143958976Y-88983947D01*
X143992461Y-89045270D01*
X143987477Y-89114962D01*
X143958976Y-89159309D01*
X143490986Y-89627300D01*
X143397802Y-89720483D01*
X143397800Y-89720486D01*
X143331908Y-89834612D01*
X143297800Y-89961908D01*
X143297800Y-90354223D01*
X143278115Y-90421262D01*
X143261481Y-90441904D01*
X140882511Y-92820873D01*
X140821188Y-92854358D01*
X140751496Y-92849374D01*
X140695563Y-92807502D01*
X140676900Y-92771512D01*
X140639873Y-92657555D01*
X140561232Y-92503212D01*
X140459414Y-92363072D01*
X140336928Y-92240586D01*
X140196788Y-92138768D01*
X140196784Y-92138766D01*
X140042449Y-92060128D01*
X139958385Y-92032814D01*
X139900710Y-91993376D01*
X139873512Y-91929017D01*
X139885427Y-91860171D01*
X139932672Y-91808695D01*
X139958386Y-91796952D01*
X140119029Y-91744755D01*
X140301349Y-91651859D01*
X140466894Y-91531582D01*
X140466895Y-91531582D01*
X140611582Y-91386895D01*
X140611582Y-91386894D01*
X140731859Y-91221349D01*
X140824755Y-91039029D01*
X140887990Y-90844413D01*
X140896609Y-90790000D01*
X139935686Y-90790000D01*
X139940080Y-90785606D01*
X139992741Y-90694394D01*
X140020000Y-90592661D01*
X140020000Y-90487339D01*
X139992741Y-90385606D01*
X139940080Y-90294394D01*
X139935686Y-90290000D01*
X140896609Y-90290000D01*
X140887990Y-90235586D01*
X140824755Y-90040970D01*
X140731859Y-89858650D01*
X140611582Y-89693105D01*
X140611582Y-89693104D01*
X140466895Y-89548417D01*
X140301349Y-89428140D01*
X140119031Y-89335244D01*
X139958385Y-89283047D01*
X139900710Y-89243609D01*
X139873512Y-89179250D01*
X139885427Y-89110404D01*
X139932671Y-89058928D01*
X139958381Y-89047187D01*
X140042445Y-89019873D01*
X140196788Y-88941232D01*
X140336928Y-88839414D01*
X140459414Y-88716928D01*
X140561232Y-88576788D01*
X140565607Y-88568202D01*
X140613582Y-88517408D01*
X140676090Y-88500500D01*
X140887590Y-88500500D01*
X140887592Y-88500500D01*
X141014886Y-88466392D01*
X141129014Y-88400500D01*
X145790995Y-83738519D01*
X145852318Y-83705034D01*
X145878676Y-83702200D01*
X146065890Y-83702200D01*
X146065892Y-83702200D01*
X146193186Y-83668092D01*
X146307314Y-83602200D01*
X146400500Y-83509014D01*
X146466392Y-83394886D01*
X146500500Y-83267592D01*
X146500500Y-83224499D01*
X146520185Y-83157460D01*
X146572989Y-83111705D01*
X146624500Y-83100499D01*
X146844856Y-83100499D01*
X146844864Y-83100499D01*
X146844879Y-83100497D01*
X146844882Y-83100497D01*
X146869987Y-83097586D01*
X146869988Y-83097585D01*
X146869991Y-83097585D01*
X146972765Y-83052206D01*
X147052206Y-82972765D01*
X147097585Y-82869991D01*
X147100500Y-82844865D01*
X147100499Y-82633318D01*
X147120183Y-82566281D01*
X147172987Y-82520526D01*
X147242145Y-82510582D01*
X147305701Y-82539607D01*
X147334984Y-82577025D01*
X147388140Y-82681349D01*
X147508417Y-82846894D01*
X147508417Y-82846895D01*
X147653104Y-82991582D01*
X147818650Y-83111859D01*
X148000968Y-83204754D01*
X148195578Y-83267988D01*
X148250000Y-83276607D01*
X148250000Y-82315686D01*
X148254394Y-82320080D01*
X148345606Y-82372741D01*
X148447339Y-82400000D01*
X148552661Y-82400000D01*
X148654394Y-82372741D01*
X148745606Y-82320080D01*
X148750000Y-82315686D01*
X148750000Y-83276606D01*
X148804421Y-83267988D01*
X148999031Y-83204754D01*
X149181349Y-83111859D01*
X149346894Y-82991582D01*
X149346895Y-82991582D01*
X149491582Y-82846895D01*
X149491582Y-82846894D01*
X149611859Y-82681349D01*
X149704755Y-82499029D01*
X149767990Y-82304413D01*
X149776609Y-82250000D01*
X148815686Y-82250000D01*
X148820080Y-82245606D01*
X148872741Y-82154394D01*
X148900000Y-82052661D01*
X148900000Y-81947339D01*
X148872741Y-81845606D01*
X148820080Y-81754394D01*
X148815686Y-81750000D01*
X149776609Y-81750000D01*
X149767990Y-81695586D01*
X149704755Y-81500970D01*
X149611859Y-81318650D01*
X149491582Y-81153105D01*
X149491582Y-81153104D01*
X149346895Y-81008417D01*
X149181349Y-80888140D01*
X148999029Y-80795244D01*
X148804413Y-80732009D01*
X148750000Y-80723390D01*
X148750000Y-81684314D01*
X148745606Y-81679920D01*
X148654394Y-81627259D01*
X148552661Y-81600000D01*
X148447339Y-81600000D01*
X148345606Y-81627259D01*
X148254394Y-81679920D01*
X148250000Y-81684314D01*
X148250000Y-80723390D01*
X148195586Y-80732009D01*
X148000970Y-80795244D01*
X147818650Y-80888140D01*
X147653105Y-81008417D01*
X147653104Y-81008417D01*
X147508417Y-81153104D01*
X147508417Y-81153105D01*
X147388140Y-81318650D01*
X147334984Y-81422976D01*
X147287010Y-81473772D01*
X147219189Y-81490567D01*
X147153054Y-81468030D01*
X147109602Y-81413315D01*
X147100499Y-81366681D01*
X147100499Y-81155143D01*
X147100499Y-81155136D01*
X147100497Y-81155117D01*
X147097586Y-81130012D01*
X147097585Y-81130010D01*
X147097585Y-81130009D01*
X147052206Y-81027235D01*
X146972765Y-80947794D01*
X146972763Y-80947793D01*
X146869992Y-80902415D01*
X146844865Y-80899500D01*
X145155143Y-80899500D01*
X145155117Y-80899502D01*
X145130012Y-80902413D01*
X145130008Y-80902415D01*
X145027235Y-80947793D01*
X144947794Y-81027234D01*
X144902415Y-81130006D01*
X144902415Y-81130008D01*
X144899500Y-81155131D01*
X144899500Y-82844856D01*
X144899502Y-82844882D01*
X144902413Y-82869987D01*
X144902415Y-82869991D01*
X144947793Y-82972764D01*
X144956776Y-82981747D01*
X144990261Y-83043070D01*
X144985277Y-83112762D01*
X144956776Y-83157109D01*
X140718363Y-87395522D01*
X140657040Y-87429007D01*
X140587348Y-87424023D01*
X140531415Y-87382151D01*
X140530364Y-87380726D01*
X140459416Y-87283075D01*
X140459411Y-87283069D01*
X140336930Y-87160588D01*
X140336928Y-87160586D01*
X140196788Y-87058768D01*
X140196789Y-87058768D01*
X140196787Y-87058767D01*
X140188199Y-87054391D01*
X140137406Y-87006414D01*
X140120500Y-86943909D01*
X140120500Y-86732410D01*
X140120500Y-86732408D01*
X140086392Y-86605114D01*
X140020500Y-86490986D01*
X139927314Y-86397800D01*
X139870250Y-86364854D01*
X139813187Y-86331908D01*
X139749539Y-86314854D01*
X139685892Y-86297800D01*
X139685891Y-86297800D01*
X138822376Y-86297800D01*
X138755337Y-86278115D01*
X138734695Y-86261481D01*
X135899788Y-83426574D01*
X135866303Y-83365251D01*
X135871287Y-83295559D01*
X135913159Y-83239626D01*
X135949152Y-83220962D01*
X135999028Y-83204756D01*
X136181349Y-83111859D01*
X136346894Y-82991582D01*
X136346895Y-82991582D01*
X136491582Y-82846895D01*
X136491582Y-82846894D01*
X136611859Y-82681349D01*
X136704755Y-82499029D01*
X136767990Y-82304413D01*
X136776609Y-82250000D01*
X135815686Y-82250000D01*
X135820080Y-82245606D01*
X135872741Y-82154394D01*
X135900000Y-82052661D01*
X135900000Y-81947339D01*
X135872741Y-81845606D01*
X135820080Y-81754394D01*
X135815686Y-81750000D01*
X136776609Y-81750000D01*
X136767990Y-81695586D01*
X136704755Y-81500970D01*
X136611859Y-81318650D01*
X136491582Y-81153105D01*
X136491582Y-81153104D01*
X136346895Y-81008417D01*
X136181349Y-80888140D01*
X135999029Y-80795244D01*
X135804413Y-80732009D01*
X135750000Y-80723390D01*
X135750000Y-81684314D01*
X135745606Y-81679920D01*
X135654394Y-81627259D01*
X135552661Y-81600000D01*
X135447339Y-81600000D01*
X135345606Y-81627259D01*
X135254394Y-81679920D01*
X135250000Y-81684314D01*
X135250000Y-80723390D01*
X135195586Y-80732009D01*
X135000970Y-80795244D01*
X134818650Y-80888140D01*
X134653105Y-81008417D01*
X134653104Y-81008417D01*
X134508417Y-81153104D01*
X134508417Y-81153105D01*
X134388140Y-81318650D01*
X134334984Y-81422976D01*
X134287010Y-81473772D01*
X134219189Y-81490567D01*
X134153054Y-81468030D01*
X134109602Y-81413315D01*
X134100499Y-81366681D01*
X134100499Y-81155143D01*
X134100499Y-81155136D01*
X134100497Y-81155117D01*
X134097586Y-81130012D01*
X134097585Y-81130010D01*
X134097585Y-81130009D01*
X134052206Y-81027235D01*
X133972765Y-80947794D01*
X133972763Y-80947793D01*
X133869992Y-80902415D01*
X133844865Y-80899500D01*
X132155143Y-80899500D01*
X132155117Y-80899502D01*
X132130012Y-80902413D01*
X132130008Y-80902415D01*
X132027235Y-80947793D01*
X131947794Y-81027234D01*
X131902415Y-81130006D01*
X131902415Y-81130008D01*
X131899500Y-81155131D01*
X131899500Y-82844856D01*
X131899502Y-82844882D01*
X131902413Y-82869987D01*
X131902415Y-82869991D01*
X131947793Y-82972764D01*
X131947794Y-82972765D01*
X132027235Y-83052206D01*
X132130009Y-83097585D01*
X132155135Y-83100500D01*
X133844864Y-83100499D01*
X133844879Y-83100497D01*
X133844882Y-83100497D01*
X133869986Y-83097586D01*
X133869987Y-83097585D01*
X133869991Y-83097585D01*
X133972765Y-83052206D01*
X133972766Y-83052204D01*
X133983277Y-83047564D01*
X133984250Y-83049767D01*
X134035555Y-83033044D01*
X134103146Y-83050742D01*
X134126895Y-83069309D01*
X138256386Y-87198800D01*
X138370514Y-87264692D01*
X138497808Y-87298800D01*
X138539809Y-87298800D01*
X138606848Y-87318485D01*
X138652603Y-87371289D01*
X138662547Y-87440447D01*
X138650294Y-87479094D01*
X138600129Y-87577549D01*
X138546597Y-87742302D01*
X138519500Y-87913389D01*
X138519500Y-88086611D01*
X138546598Y-88257701D01*
X138600127Y-88422445D01*
X138678768Y-88576788D01*
X138780586Y-88716928D01*
X138903072Y-88839414D01*
X139043212Y-88941232D01*
X139197555Y-89019873D01*
X139281613Y-89047185D01*
X139339289Y-89086623D01*
X139366487Y-89150981D01*
X139354572Y-89219828D01*
X139307328Y-89271303D01*
X139281614Y-89283047D01*
X139120968Y-89335244D01*
X138938650Y-89428140D01*
X138773105Y-89548417D01*
X138773104Y-89548417D01*
X138628417Y-89693104D01*
X138628417Y-89693105D01*
X138508140Y-89858650D01*
X138415244Y-90040970D01*
X138352009Y-90235586D01*
X138343391Y-90290000D01*
X139304314Y-90290000D01*
X139299920Y-90294394D01*
X139247259Y-90385606D01*
X139220000Y-90487339D01*
X139220000Y-90592661D01*
X139247259Y-90694394D01*
X139299920Y-90785606D01*
X139304314Y-90790000D01*
X138343391Y-90790000D01*
X138352009Y-90844413D01*
X138415244Y-91039029D01*
X138508140Y-91221349D01*
X138628417Y-91386894D01*
X138628417Y-91386895D01*
X138773104Y-91531582D01*
X138938650Y-91651859D01*
X139120970Y-91744755D01*
X139281613Y-91796952D01*
X139339289Y-91836390D01*
X139366487Y-91900748D01*
X139354572Y-91969595D01*
X139307328Y-92021070D01*
X139281615Y-92032814D01*
X139197549Y-92060129D01*
X139043211Y-92138768D01*
X138963256Y-92196859D01*
X138903072Y-92240586D01*
X138903070Y-92240588D01*
X138903069Y-92240588D01*
X138780588Y-92363069D01*
X138780588Y-92363070D01*
X138780586Y-92363072D01*
X138736859Y-92423256D01*
X138678768Y-92503211D01*
X138600128Y-92657552D01*
X138546597Y-92822302D01*
X138541520Y-92854358D01*
X138519500Y-92993389D01*
X138519500Y-93166611D01*
X138546598Y-93337701D01*
X138600127Y-93502445D01*
X138678768Y-93656788D01*
X138780586Y-93796928D01*
X138780588Y-93796930D01*
X138794190Y-93810532D01*
X138827675Y-93871855D01*
X138822691Y-93941547D01*
X138794190Y-93985894D01*
X133379886Y-99400200D01*
X133286702Y-99493383D01*
X133286700Y-99493386D01*
X133220808Y-99607512D01*
X133186700Y-99734808D01*
X133186700Y-100088472D01*
X133167015Y-100155511D01*
X133114211Y-100201266D01*
X133045053Y-100211210D01*
X132981497Y-100182185D01*
X132952216Y-100144768D01*
X132941233Y-100123214D01*
X132941231Y-100123211D01*
X132839414Y-99983072D01*
X132716928Y-99860586D01*
X132576788Y-99758768D01*
X132496208Y-99717711D01*
X132422447Y-99680128D01*
X132422446Y-99680127D01*
X132422445Y-99680127D01*
X132257701Y-99626598D01*
X132257699Y-99626597D01*
X132257698Y-99626597D01*
X132126271Y-99605781D01*
X132086611Y-99599500D01*
X131913389Y-99599500D01*
X131873728Y-99605781D01*
X131742302Y-99626597D01*
X131577552Y-99680128D01*
X131423207Y-99758770D01*
X131421281Y-99760170D01*
X131420423Y-99760475D01*
X131419056Y-99761314D01*
X131418879Y-99761026D01*
X131355474Y-99783647D01*
X131287421Y-99767819D01*
X131238728Y-99717711D01*
X131224400Y-99659849D01*
X131224400Y-99200150D01*
X131244085Y-99133111D01*
X131296889Y-99087356D01*
X131366047Y-99077412D01*
X131418936Y-99098880D01*
X131419056Y-99098686D01*
X131420230Y-99099405D01*
X131421290Y-99099836D01*
X131423212Y-99101232D01*
X131577555Y-99179873D01*
X131742299Y-99233402D01*
X131913389Y-99260500D01*
X131913390Y-99260500D01*
X132086610Y-99260500D01*
X132086611Y-99260500D01*
X132257701Y-99233402D01*
X132422445Y-99179873D01*
X132576788Y-99101232D01*
X132716928Y-98999414D01*
X132839414Y-98876928D01*
X132941232Y-98736788D01*
X133019873Y-98582445D01*
X133073402Y-98417701D01*
X133100500Y-98246611D01*
X133100500Y-98073389D01*
X133073402Y-97902299D01*
X133019873Y-97737555D01*
X132941232Y-97583212D01*
X132839414Y-97443072D01*
X132716928Y-97320586D01*
X132576788Y-97218768D01*
X132422445Y-97140127D01*
X132257701Y-97086598D01*
X132257699Y-97086597D01*
X132257698Y-97086597D01*
X132126271Y-97065781D01*
X132086611Y-97059500D01*
X131913389Y-97059500D01*
X131873728Y-97065781D01*
X131742302Y-97086597D01*
X131577552Y-97140128D01*
X131423207Y-97218770D01*
X131421281Y-97220170D01*
X131420423Y-97220475D01*
X131419056Y-97221314D01*
X131418879Y-97221026D01*
X131355474Y-97243647D01*
X131287421Y-97227819D01*
X131238728Y-97177711D01*
X131224400Y-97119849D01*
X131224400Y-96660150D01*
X131244085Y-96593111D01*
X131296889Y-96547356D01*
X131366047Y-96537412D01*
X131418936Y-96558880D01*
X131419056Y-96558686D01*
X131420230Y-96559405D01*
X131421290Y-96559836D01*
X131423212Y-96561232D01*
X131577555Y-96639873D01*
X131742299Y-96693402D01*
X131913389Y-96720500D01*
X131913390Y-96720500D01*
X132086610Y-96720500D01*
X132086611Y-96720500D01*
X132257701Y-96693402D01*
X132422445Y-96639873D01*
X132576788Y-96561232D01*
X132716928Y-96459414D01*
X132839414Y-96336928D01*
X132941232Y-96196788D01*
X133019873Y-96042445D01*
X133073402Y-95877701D01*
X133100500Y-95706611D01*
X133100500Y-95533389D01*
X133073402Y-95362299D01*
X133019873Y-95197555D01*
X132941232Y-95043212D01*
X132839414Y-94903072D01*
X132716928Y-94780586D01*
X132576788Y-94678768D01*
X132422445Y-94600127D01*
X132257701Y-94546598D01*
X132257699Y-94546597D01*
X132257698Y-94546597D01*
X132126271Y-94525781D01*
X132086611Y-94519500D01*
X131913389Y-94519500D01*
X131873728Y-94525781D01*
X131742302Y-94546597D01*
X131577552Y-94600128D01*
X131423207Y-94678770D01*
X131421281Y-94680170D01*
X131420423Y-94680475D01*
X131419056Y-94681314D01*
X131418879Y-94681026D01*
X131355474Y-94703647D01*
X131287421Y-94687819D01*
X131238728Y-94637711D01*
X131224400Y-94579849D01*
X131224400Y-94120150D01*
X131244085Y-94053111D01*
X131296889Y-94007356D01*
X131366047Y-93997412D01*
X131418936Y-94018880D01*
X131419056Y-94018686D01*
X131420230Y-94019405D01*
X131421290Y-94019836D01*
X131423212Y-94021232D01*
X131577555Y-94099873D01*
X131742299Y-94153402D01*
X131913389Y-94180500D01*
X131913390Y-94180500D01*
X132086610Y-94180500D01*
X132086611Y-94180500D01*
X132257701Y-94153402D01*
X132422445Y-94099873D01*
X132576788Y-94021232D01*
X132716928Y-93919414D01*
X132839414Y-93796928D01*
X132941232Y-93656788D01*
X133019873Y-93502445D01*
X133073402Y-93337701D01*
X133100500Y-93166611D01*
X133100500Y-92993389D01*
X133073402Y-92822299D01*
X133019873Y-92657555D01*
X132941232Y-92503212D01*
X132839414Y-92363072D01*
X132716928Y-92240586D01*
X132646858Y-92189677D01*
X132576786Y-92138766D01*
X132516958Y-92108283D01*
X132466161Y-92060309D01*
X132449366Y-91992488D01*
X132463874Y-91942646D01*
X132463280Y-91942400D01*
X132465521Y-91936988D01*
X132465870Y-91935789D01*
X132466392Y-91934886D01*
X132500500Y-91807592D01*
X132500500Y-91596089D01*
X132520185Y-91529050D01*
X132568206Y-91485604D01*
X132576788Y-91481232D01*
X132716928Y-91379414D01*
X132839414Y-91256928D01*
X132941232Y-91116788D01*
X133019873Y-90962445D01*
X133073402Y-90797701D01*
X133100500Y-90626611D01*
X133100500Y-90453389D01*
X133073402Y-90282299D01*
X133019873Y-90117555D01*
X132941232Y-89963212D01*
X132839414Y-89823072D01*
X132716928Y-89700586D01*
X132576788Y-89598768D01*
X132422445Y-89520127D01*
X132257701Y-89466598D01*
X132257699Y-89466597D01*
X132257698Y-89466597D01*
X132126271Y-89445781D01*
X132086611Y-89439500D01*
X131913389Y-89439500D01*
X131873728Y-89445781D01*
X131742302Y-89466597D01*
X131577552Y-89520128D01*
X131423211Y-89598768D01*
X131383941Y-89627300D01*
X131283072Y-89700586D01*
X131283070Y-89700588D01*
X131283069Y-89700588D01*
X131160588Y-89823069D01*
X131160588Y-89823070D01*
X131160586Y-89823072D01*
X131134737Y-89858650D01*
X131058768Y-89963211D01*
X130980128Y-90117552D01*
X130926597Y-90282302D01*
X130904588Y-90421262D01*
X130899500Y-90453389D01*
X130899500Y-90626611D01*
X130926598Y-90797701D01*
X130980127Y-90962445D01*
X131058768Y-91116788D01*
X131160586Y-91256928D01*
X131160588Y-91256930D01*
X131194341Y-91290683D01*
X131227826Y-91352006D01*
X131222842Y-91421698D01*
X131194341Y-91466045D01*
X130323402Y-92336983D01*
X130323400Y-92336986D01*
X130257508Y-92451112D01*
X130223400Y-92578408D01*
X128670222Y-92578408D01*
X128678377Y-92564284D01*
X128719300Y-92411557D01*
X128719300Y-92253443D01*
X128678377Y-92100716D01*
X128632394Y-92021070D01*
X128599324Y-91963790D01*
X128599318Y-91963782D01*
X128487517Y-91851981D01*
X128487509Y-91851975D01*
X128350590Y-91772926D01*
X128350586Y-91772924D01*
X128350584Y-91772923D01*
X128197857Y-91732000D01*
X128039743Y-91732000D01*
X127887016Y-91772923D01*
X127887009Y-91772926D01*
X127750090Y-91851975D01*
X127750082Y-91851981D01*
X127638281Y-91963782D01*
X127638275Y-91963790D01*
X127559226Y-92100709D01*
X127559223Y-92100716D01*
X127518300Y-92253443D01*
X127518300Y-92411557D01*
X127528900Y-92451114D01*
X127559223Y-92564283D01*
X127559224Y-92564286D01*
X127601687Y-92637834D01*
X127618300Y-92699834D01*
X127618300Y-93359224D01*
X127598615Y-93426263D01*
X127581981Y-93446905D01*
X118793363Y-102235522D01*
X118732040Y-102269007D01*
X118662348Y-102264023D01*
X118606415Y-102222151D01*
X118605364Y-102220726D01*
X118576552Y-102181070D01*
X118534414Y-102123072D01*
X118411928Y-102000586D01*
X118271788Y-101898768D01*
X118117445Y-101820127D01*
X117952701Y-101766598D01*
X117952699Y-101766597D01*
X117952698Y-101766597D01*
X117821271Y-101745781D01*
X117781611Y-101739500D01*
X117608389Y-101739500D01*
X117568728Y-101745781D01*
X117437302Y-101766597D01*
X117272552Y-101820128D01*
X117118211Y-101898768D01*
X117079907Y-101926598D01*
X116978072Y-102000586D01*
X116978070Y-102000588D01*
X116978069Y-102000588D01*
X116855588Y-102123069D01*
X116855588Y-102123070D01*
X116855586Y-102123072D01*
X116813448Y-102181070D01*
X116753768Y-102263211D01*
X116675128Y-102417552D01*
X116621597Y-102582302D01*
X116594500Y-102753389D01*
X116025500Y-102753389D01*
X115998402Y-102582299D01*
X115944873Y-102417555D01*
X115866232Y-102263212D01*
X115764414Y-102123072D01*
X115641928Y-102000586D01*
X115501788Y-101898768D01*
X115347445Y-101820127D01*
X115182701Y-101766598D01*
X115182699Y-101766597D01*
X115182698Y-101766597D01*
X115051271Y-101745781D01*
X115011611Y-101739500D01*
X114838389Y-101739500D01*
X114798728Y-101745781D01*
X114667302Y-101766597D01*
X114502552Y-101820128D01*
X114348211Y-101898768D01*
X114309907Y-101926598D01*
X114208072Y-102000586D01*
X114208070Y-102000588D01*
X114208069Y-102000588D01*
X114085588Y-102123069D01*
X114085588Y-102123070D01*
X114085586Y-102123072D01*
X114043448Y-102181070D01*
X113983768Y-102263211D01*
X113905128Y-102417552D01*
X113851597Y-102582302D01*
X113824500Y-102753389D01*
X113255500Y-102753389D01*
X113228402Y-102582299D01*
X113174873Y-102417555D01*
X113096232Y-102263212D01*
X112994414Y-102123072D01*
X112871928Y-102000586D01*
X112731788Y-101898768D01*
X112577445Y-101820127D01*
X112412701Y-101766598D01*
X112412699Y-101766597D01*
X112412698Y-101766597D01*
X112281271Y-101745781D01*
X112241611Y-101739500D01*
X112068389Y-101739500D01*
X112028728Y-101745781D01*
X111897302Y-101766597D01*
X111732552Y-101820128D01*
X111578211Y-101898768D01*
X111539907Y-101926598D01*
X111438072Y-102000586D01*
X111438070Y-102000588D01*
X111438069Y-102000588D01*
X111315588Y-102123069D01*
X111315588Y-102123070D01*
X111315586Y-102123072D01*
X111273448Y-102181070D01*
X111213768Y-102263211D01*
X111135128Y-102417552D01*
X111081597Y-102582302D01*
X111054500Y-102753389D01*
X110485500Y-102753389D01*
X110458402Y-102582299D01*
X110404873Y-102417555D01*
X110326232Y-102263212D01*
X110224414Y-102123072D01*
X110101928Y-102000586D01*
X109961788Y-101898768D01*
X109807445Y-101820127D01*
X109642701Y-101766598D01*
X109642699Y-101766597D01*
X109642698Y-101766597D01*
X109511271Y-101745781D01*
X109471611Y-101739500D01*
X109298389Y-101739500D01*
X109258728Y-101745781D01*
X109127302Y-101766597D01*
X108962552Y-101820128D01*
X108808211Y-101898768D01*
X108769907Y-101926598D01*
X108668072Y-102000586D01*
X108668070Y-102000588D01*
X108668069Y-102000588D01*
X108545588Y-102123069D01*
X108545588Y-102123070D01*
X108545586Y-102123072D01*
X108503448Y-102181070D01*
X108443768Y-102263211D01*
X108365128Y-102417552D01*
X108311597Y-102582302D01*
X108284500Y-102753389D01*
X104132902Y-102753389D01*
X104145321Y-102740970D01*
X104225456Y-102660836D01*
X104276587Y-102609704D01*
X104276592Y-102609699D01*
X104420273Y-102422450D01*
X104538284Y-102218049D01*
X104628606Y-101999993D01*
X104689693Y-101772014D01*
X104720500Y-101538011D01*
X104720500Y-101301989D01*
X104689693Y-101067986D01*
X104628606Y-100840007D01*
X104538284Y-100621951D01*
X104538282Y-100621948D01*
X104538280Y-100621943D01*
X104468164Y-100500500D01*
X104420273Y-100417550D01*
X104355776Y-100333496D01*
X104310219Y-100274124D01*
X104276593Y-100230302D01*
X104276587Y-100230295D01*
X104109704Y-100063412D01*
X104109697Y-100063406D01*
X104036048Y-100006893D01*
X103922454Y-99919730D01*
X103922453Y-99919729D01*
X103922450Y-99919727D01*
X103840957Y-99872677D01*
X103718056Y-99801719D01*
X103718045Y-99801714D01*
X103499993Y-99711394D01*
X103272010Y-99650306D01*
X103038020Y-99619501D01*
X103038017Y-99619500D01*
X103038011Y-99619500D01*
X102801989Y-99619500D01*
X102801983Y-99619500D01*
X102801979Y-99619501D01*
X102567989Y-99650306D01*
X102340006Y-99711394D01*
X102121954Y-99801714D01*
X102121943Y-99801719D01*
X101930909Y-99912014D01*
X101918363Y-99919258D01*
X101917545Y-99919730D01*
X101730302Y-100063406D01*
X101730295Y-100063412D01*
X101563412Y-100230295D01*
X101563406Y-100230302D01*
X101419730Y-100417545D01*
X101301719Y-100621943D01*
X101301714Y-100621954D01*
X101211394Y-100840006D01*
X101150306Y-101067989D01*
X101119501Y-101301979D01*
X101119500Y-101301995D01*
X100075500Y-101301995D01*
X100075500Y-99152155D01*
X106700000Y-99152155D01*
X106700000Y-99750000D01*
X107566988Y-99750000D01*
X107534075Y-99807007D01*
X107500000Y-99934174D01*
X107500000Y-100065826D01*
X107534075Y-100192993D01*
X107566988Y-100250000D01*
X106700000Y-100250000D01*
X106700000Y-100847844D01*
X106706401Y-100907372D01*
X106706403Y-100907379D01*
X106756645Y-101042086D01*
X106756649Y-101042093D01*
X106842809Y-101157187D01*
X106842812Y-101157190D01*
X106957906Y-101243350D01*
X106957913Y-101243354D01*
X107092620Y-101293596D01*
X107092627Y-101293598D01*
X107152155Y-101299999D01*
X107152172Y-101300000D01*
X107750000Y-101300000D01*
X107750000Y-100433012D01*
X107807007Y-100465925D01*
X107934174Y-100500000D01*
X108065826Y-100500000D01*
X108192993Y-100465925D01*
X108250000Y-100433012D01*
X108250000Y-101300000D01*
X108847828Y-101300000D01*
X108847844Y-101299999D01*
X108907372Y-101293598D01*
X108907379Y-101293596D01*
X109042086Y-101243354D01*
X109042093Y-101243350D01*
X109157187Y-101157190D01*
X109157190Y-101157187D01*
X109243350Y-101042093D01*
X109243354Y-101042086D01*
X109293596Y-100907379D01*
X109293598Y-100907372D01*
X109299999Y-100847844D01*
X109300000Y-100847827D01*
X109300000Y-100250000D01*
X108433012Y-100250000D01*
X108465925Y-100192993D01*
X108500000Y-100065826D01*
X108500000Y-99934174D01*
X108494431Y-99913389D01*
X109669500Y-99913389D01*
X109669500Y-100086610D01*
X109689234Y-100211210D01*
X109696598Y-100257701D01*
X109750127Y-100422445D01*
X109828768Y-100576788D01*
X109930586Y-100716928D01*
X110053072Y-100839414D01*
X110193212Y-100941232D01*
X110347555Y-101019873D01*
X110512299Y-101073402D01*
X110683389Y-101100500D01*
X110683390Y-101100500D01*
X110856610Y-101100500D01*
X110856611Y-101100500D01*
X111027701Y-101073402D01*
X111192445Y-101019873D01*
X111346788Y-100941232D01*
X111486928Y-100839414D01*
X111609414Y-100716928D01*
X111711232Y-100576788D01*
X111789873Y-100422445D01*
X111843402Y-100257701D01*
X111870500Y-100086611D01*
X111870500Y-99913389D01*
X112439500Y-99913389D01*
X112439500Y-100086610D01*
X112459234Y-100211210D01*
X112466598Y-100257701D01*
X112520127Y-100422445D01*
X112598768Y-100576788D01*
X112700586Y-100716928D01*
X112823072Y-100839414D01*
X112963212Y-100941232D01*
X113117555Y-101019873D01*
X113282299Y-101073402D01*
X113453389Y-101100500D01*
X113453390Y-101100500D01*
X113626610Y-101100500D01*
X113626611Y-101100500D01*
X113797701Y-101073402D01*
X113962445Y-101019873D01*
X114116788Y-100941232D01*
X114256928Y-100839414D01*
X114379414Y-100716928D01*
X114481232Y-100576788D01*
X114485607Y-100568202D01*
X114533582Y-100517408D01*
X114596090Y-100500500D01*
X114807590Y-100500500D01*
X114807592Y-100500500D01*
X114934886Y-100466392D01*
X115049014Y-100400500D01*
X115082533Y-100366980D01*
X115143853Y-100333496D01*
X115213545Y-100338480D01*
X115269479Y-100380350D01*
X115288141Y-100416334D01*
X115290127Y-100422446D01*
X115352880Y-100545606D01*
X115368768Y-100576788D01*
X115470586Y-100716928D01*
X115593072Y-100839414D01*
X115733212Y-100941232D01*
X115887555Y-101019873D01*
X116052299Y-101073402D01*
X116223389Y-101100500D01*
X116223390Y-101100500D01*
X116396610Y-101100500D01*
X116396611Y-101100500D01*
X116567701Y-101073402D01*
X116732445Y-101019873D01*
X116886788Y-100941232D01*
X117026928Y-100839414D01*
X117149414Y-100716928D01*
X117251232Y-100576788D01*
X117329873Y-100422445D01*
X117383402Y-100257701D01*
X117410500Y-100086611D01*
X117410500Y-99913389D01*
X117979500Y-99913389D01*
X117979500Y-100086610D01*
X117999234Y-100211210D01*
X118006598Y-100257701D01*
X118060127Y-100422445D01*
X118138768Y-100576788D01*
X118240586Y-100716928D01*
X118363072Y-100839414D01*
X118503212Y-100941232D01*
X118657555Y-101019873D01*
X118822299Y-101073402D01*
X118993389Y-101100500D01*
X118993390Y-101100500D01*
X119166610Y-101100500D01*
X119166611Y-101100500D01*
X119337701Y-101073402D01*
X119502445Y-101019873D01*
X119656788Y-100941232D01*
X119796928Y-100839414D01*
X119919414Y-100716928D01*
X120021232Y-100576788D01*
X120099873Y-100422445D01*
X120153402Y-100257701D01*
X120180500Y-100086611D01*
X120180500Y-99913389D01*
X120153402Y-99742299D01*
X120099873Y-99577555D01*
X120021232Y-99423212D01*
X119919414Y-99283072D01*
X119796928Y-99160586D01*
X119656788Y-99058768D01*
X119502445Y-98980127D01*
X119337701Y-98926598D01*
X119337699Y-98926597D01*
X119337698Y-98926597D01*
X119206271Y-98905781D01*
X119166611Y-98899500D01*
X118993389Y-98899500D01*
X118953728Y-98905781D01*
X118822302Y-98926597D01*
X118657552Y-98980128D01*
X118503211Y-99058768D01*
X118423256Y-99116859D01*
X118363072Y-99160586D01*
X118363070Y-99160588D01*
X118363069Y-99160588D01*
X118240588Y-99283069D01*
X118240588Y-99283070D01*
X118240586Y-99283072D01*
X118222093Y-99308526D01*
X118138768Y-99423211D01*
X118060128Y-99577552D01*
X118006597Y-99742302D01*
X117979500Y-99913389D01*
X117410500Y-99913389D01*
X117383402Y-99742299D01*
X117329873Y-99577555D01*
X117251232Y-99423212D01*
X117149414Y-99283072D01*
X117026928Y-99160586D01*
X116886788Y-99058768D01*
X116732449Y-98980128D01*
X116612977Y-98941309D01*
X116555302Y-98901871D01*
X116528104Y-98837512D01*
X116540019Y-98768666D01*
X116563612Y-98735700D01*
X126762495Y-88536819D01*
X126823818Y-88503334D01*
X126850176Y-88500500D01*
X130775501Y-88500500D01*
X130842540Y-88520185D01*
X130888295Y-88572989D01*
X130899501Y-88624500D01*
X130899501Y-88844856D01*
X130899502Y-88844882D01*
X130902413Y-88869987D01*
X130902415Y-88869991D01*
X130947793Y-88972764D01*
X130947794Y-88972765D01*
X131027235Y-89052206D01*
X131130009Y-89097585D01*
X131155135Y-89100500D01*
X132844864Y-89100499D01*
X132844879Y-89100497D01*
X132844882Y-89100497D01*
X132869987Y-89097586D01*
X132869988Y-89097585D01*
X132869991Y-89097585D01*
X132972765Y-89052206D01*
X133052206Y-88972765D01*
X133097585Y-88869991D01*
X133100500Y-88844865D01*
X133100499Y-87155136D01*
X133100497Y-87155117D01*
X133097586Y-87130012D01*
X133097585Y-87130010D01*
X133097585Y-87130009D01*
X133052206Y-87027235D01*
X132972765Y-86947794D01*
X132963966Y-86943909D01*
X132869992Y-86902415D01*
X132844865Y-86899500D01*
X131155143Y-86899500D01*
X131155117Y-86899502D01*
X131130012Y-86902413D01*
X131130008Y-86902415D01*
X131027235Y-86947793D01*
X130947794Y-87027234D01*
X130902415Y-87130006D01*
X130902415Y-87130008D01*
X130899500Y-87155131D01*
X130899500Y-87375500D01*
X130879815Y-87442539D01*
X130827011Y-87488294D01*
X130775500Y-87499500D01*
X126525608Y-87499500D01*
X126398312Y-87533608D01*
X126284186Y-87599500D01*
X126284183Y-87599502D01*
X114575158Y-99308526D01*
X114513835Y-99342011D01*
X114444143Y-99337027D01*
X114388210Y-99295155D01*
X114387160Y-99293733D01*
X114379413Y-99283071D01*
X114256930Y-99160588D01*
X114256928Y-99160586D01*
X114116788Y-99058768D01*
X113962445Y-98980127D01*
X113797701Y-98926598D01*
X113797699Y-98926597D01*
X113797698Y-98926597D01*
X113666271Y-98905781D01*
X113626611Y-98899500D01*
X113453389Y-98899500D01*
X113413728Y-98905781D01*
X113282302Y-98926597D01*
X113117552Y-98980128D01*
X112963211Y-99058768D01*
X112883256Y-99116859D01*
X112823072Y-99160586D01*
X112823070Y-99160588D01*
X112823069Y-99160588D01*
X112700588Y-99283069D01*
X112700588Y-99283070D01*
X112700586Y-99283072D01*
X112682093Y-99308526D01*
X112598768Y-99423211D01*
X112520128Y-99577552D01*
X112466597Y-99742302D01*
X112439500Y-99913389D01*
X111870500Y-99913389D01*
X111843402Y-99742299D01*
X111789873Y-99577555D01*
X111711232Y-99423212D01*
X111609414Y-99283072D01*
X111486928Y-99160586D01*
X111346788Y-99058768D01*
X111192445Y-98980127D01*
X111027701Y-98926598D01*
X111027699Y-98926597D01*
X111027698Y-98926597D01*
X110896271Y-98905781D01*
X110856611Y-98899500D01*
X110683389Y-98899500D01*
X110643728Y-98905781D01*
X110512302Y-98926597D01*
X110347552Y-98980128D01*
X110193211Y-99058768D01*
X110113256Y-99116859D01*
X110053072Y-99160586D01*
X110053070Y-99160588D01*
X110053069Y-99160588D01*
X109930588Y-99283069D01*
X109930588Y-99283070D01*
X109930586Y-99283072D01*
X109912093Y-99308526D01*
X109828768Y-99423211D01*
X109750128Y-99577552D01*
X109696597Y-99742302D01*
X109669500Y-99913389D01*
X108494431Y-99913389D01*
X108465925Y-99807007D01*
X108433012Y-99750000D01*
X109300000Y-99750000D01*
X109300000Y-99152172D01*
X109299999Y-99152155D01*
X109293598Y-99092627D01*
X109293596Y-99092620D01*
X109243354Y-98957913D01*
X109243350Y-98957906D01*
X109157190Y-98842812D01*
X109157187Y-98842809D01*
X109042093Y-98756649D01*
X109042086Y-98756645D01*
X108907379Y-98706403D01*
X108907372Y-98706401D01*
X108847844Y-98700000D01*
X108250000Y-98700000D01*
X108250000Y-99566988D01*
X108192993Y-99534075D01*
X108065826Y-99500000D01*
X107934174Y-99500000D01*
X107807007Y-99534075D01*
X107750000Y-99566988D01*
X107750000Y-98700000D01*
X107152155Y-98700000D01*
X107092627Y-98706401D01*
X107092620Y-98706403D01*
X106957913Y-98756645D01*
X106957906Y-98756649D01*
X106842812Y-98842809D01*
X106842809Y-98842812D01*
X106756649Y-98957906D01*
X106756645Y-98957913D01*
X106706403Y-99092620D01*
X106706401Y-99092627D01*
X106700000Y-99152155D01*
X100075500Y-99152155D01*
X100075500Y-80199500D01*
X100095185Y-80132461D01*
X100147989Y-80086706D01*
X100199500Y-80075500D01*
X179800500Y-80075500D01*
X179867539Y-80095185D01*
G37*
%TD.AperFunction*%
%TD*%
M02*
