%TF.GenerationSoftware,KiCad,Pcbnew,9.0.7*%
%TF.CreationDate,2026-03-11T00:11:01+02:00*%
%TF.ProjectId,amstrad-pc1640-pcmm-adapter,616d7374-7261-4642-9d70-63313634302d,rev?*%
%TF.SameCoordinates,Original*%
%TF.FileFunction,Copper,L1,Top*%
%TF.FilePolarity,Positive*%
%FSLAX46Y46*%
G04 Gerber Fmt 4.6, Leading zero omitted, Abs format (unit mm)*
G04 Created by KiCad (PCBNEW 9.0.7) date 2026-03-11 00:11:01*
%MOMM*%
%LPD*%
G01*
G04 APERTURE LIST*
%TA.AperFunction,ComponentPad*%
%ADD10R,1.700000X1.700000*%
%TD*%
%TA.AperFunction,ComponentPad*%
%ADD11O,1.700000X1.700000*%
%TD*%
%TA.AperFunction,ComponentPad*%
%ADD12R,1.600000X1.600000*%
%TD*%
%TA.AperFunction,ComponentPad*%
%ADD13O,1.600000X1.600000*%
%TD*%
%TA.AperFunction,ComponentPad*%
%ADD14O,3.000000X3.000000*%
%TD*%
%TA.AperFunction,ViaPad*%
%ADD15C,0.600000*%
%TD*%
%TA.AperFunction,Conductor*%
%ADD16C,0.400000*%
%TD*%
G04 APERTURE END LIST*
D10*
%TO.P,J3,1*%
%TO.N,+5V*%
X140000000Y-121000000D03*
D11*
%TO.P,J3,2*%
%TO.N,GND*%
X142540000Y-121000000D03*
%TD*%
D12*
%TO.P,J2,1*%
%TO.N,CSYNC_INV*%
X170000000Y-94500000D03*
D13*
%TO.P,J2,2*%
%TO.N,INTENSITY_INV*%
X174500000Y-103000000D03*
%TO.P,J2,3*%
%TO.N,GND*%
X170000000Y-103000000D03*
%TO.P,J2,4*%
%TO.N,BLACK*%
X175500000Y-98500000D03*
%TO.P,J2,5*%
%TO.N,GREEN_INV*%
X173500000Y-95000000D03*
%TO.P,J2,6*%
%TO.N,BLUE_INV*%
X166500000Y-95000000D03*
%TO.P,J2,7*%
%TO.N,GND*%
X164500000Y-98500000D03*
%TO.P,J2,8*%
%TO.N,RED_INV*%
X165500000Y-103000000D03*
D14*
%TO.P,J2,SH1*%
%TO.N,GND*%
X162500000Y-105500000D03*
%TO.P,J2,SH2*%
X177500000Y-105500000D03*
%TD*%
D12*
%TO.P,R1,1*%
%TO.N,+5V*%
X157000000Y-112000000D03*
D13*
%TO.P,R1,2*%
%TO.N,BLACK*%
X164620000Y-112000000D03*
%TD*%
D12*
%TO.P,U1,1*%
%TO.N,RED*%
X132000000Y-88000000D03*
D13*
%TO.P,U1,2*%
%TO.N,RED_INV*%
X132000000Y-90540000D03*
%TO.P,U1,3*%
%TO.N,GREEN*%
X132000000Y-93080000D03*
%TO.P,U1,4*%
%TO.N,GREEN_INV*%
X132000000Y-95620000D03*
%TO.P,U1,5*%
%TO.N,BLUE*%
X132000000Y-98160000D03*
%TO.P,U1,6*%
%TO.N,BLUE_INV*%
X132000000Y-100700000D03*
%TO.P,U1,7*%
%TO.N,GND*%
X132000000Y-103240000D03*
%TO.P,U1,8*%
%TO.N,INTENSITY_INV*%
X139620000Y-103240000D03*
%TO.P,U1,9*%
%TO.N,INTENSITY*%
X139620000Y-100700000D03*
%TO.P,U1,10*%
%TO.N,CSYNC_INV*%
X139620000Y-98160000D03*
%TO.P,U1,11*%
%TO.N,CSYNC*%
X139620000Y-95620000D03*
%TO.P,U1,12*%
%TO.N,N/C*%
X139620000Y-93080000D03*
%TO.P,U1,13*%
%TO.N,GND*%
X139620000Y-90540000D03*
%TO.P,U1,14*%
%TO.N,+5V*%
X139620000Y-88000000D03*
%TD*%
D12*
%TO.P,C2,1*%
%TO.N,+5V*%
X146000000Y-82000000D03*
D13*
%TO.P,C2,2*%
%TO.N,GND*%
X148500000Y-82000000D03*
%TD*%
D12*
%TO.P,U2,1*%
%TO.N,HSYNC*%
X145000000Y-88000000D03*
D13*
%TO.P,U2,2*%
%TO.N,VSYNC*%
X145000000Y-90540000D03*
%TO.P,U2,3*%
%TO.N,CSYNC*%
X145000000Y-93080000D03*
%TO.P,U2,4*%
%TO.N,GND*%
X145000000Y-95620000D03*
%TO.P,U2,5*%
X145000000Y-98160000D03*
%TO.P,U2,6*%
%TO.N,N/C*%
X145000000Y-100700000D03*
%TO.P,U2,7*%
%TO.N,GND*%
X145000000Y-103240000D03*
%TO.P,U2,8*%
%TO.N,N/C*%
X152620000Y-103240000D03*
%TO.P,U2,9*%
%TO.N,GND*%
X152620000Y-100700000D03*
%TO.P,U2,10*%
X152620000Y-98160000D03*
%TO.P,U2,11*%
%TO.N,N/C*%
X152620000Y-95620000D03*
%TO.P,U2,12*%
%TO.N,GND*%
X152620000Y-93080000D03*
%TO.P,U2,13*%
X152620000Y-90540000D03*
%TO.P,U2,14*%
%TO.N,+5V*%
X152620000Y-88000000D03*
%TD*%
D12*
%TO.P,J1,1*%
%TO.N,GND*%
X108000000Y-100000000D03*
D13*
%TO.P,J1,2*%
%TO.N,N/C*%
X110770000Y-100000000D03*
%TO.P,J1,3*%
%TO.N,RED*%
X113540000Y-100000000D03*
%TO.P,J1,4*%
%TO.N,GREEN*%
X116310000Y-100000000D03*
%TO.P,J1,5*%
%TO.N,BLUE*%
X119080000Y-100000000D03*
%TO.P,J1,6*%
%TO.N,INTENSITY*%
X109385000Y-102840000D03*
%TO.P,J1,7*%
%TO.N,N/C*%
X112155000Y-102840000D03*
%TO.P,J1,8*%
%TO.N,HSYNC*%
X114925000Y-102840000D03*
%TO.P,J1,9*%
%TO.N,VSYNC*%
X117695000Y-102840000D03*
D14*
%TO.P,J1,MH1*%
%TO.N,N/C*%
X102920000Y-101420000D03*
%TO.P,J1,MH2*%
X124160000Y-101420000D03*
%TD*%
D12*
%TO.P,C1,1*%
%TO.N,+5V*%
X133000000Y-82000000D03*
D13*
%TO.P,C1,2*%
%TO.N,GND*%
X135500000Y-82000000D03*
%TD*%
D15*
%TO.N,RED_INV*%
X136446600Y-102335000D03*
%TO.N,BLUE_INV*%
X162989200Y-98382500D03*
%TO.N,HSYNC*%
X116237200Y-89787500D03*
%TO.N,VSYNC*%
X118687700Y-97815200D03*
%TD*%
D16*
%TO.N,+5V*%
X151418300Y-88000000D02*
X150148300Y-89270000D01*
X134201700Y-82000000D02*
X134201700Y-82450700D01*
X134952700Y-83201700D02*
X143596600Y-83201700D01*
X133000000Y-82000000D02*
X134201700Y-82000000D01*
X134201700Y-82450700D02*
X134952700Y-83201700D01*
X146000000Y-82000000D02*
X144798300Y-82000000D01*
X142091700Y-89270000D02*
X140821700Y-88000000D01*
X143596600Y-83201700D02*
X144798300Y-82000000D01*
X152620000Y-88000000D02*
X151418300Y-88000000D01*
X139620000Y-88000000D02*
X140821700Y-88000000D01*
X150148300Y-89270000D02*
X142091700Y-89270000D01*
%TO.N,RED*%
X126492700Y-88000000D02*
X132000000Y-88000000D01*
X113540000Y-100000000D02*
X114741700Y-100000000D01*
X114741700Y-99751000D02*
X126492700Y-88000000D01*
X114741700Y-100000000D02*
X114741700Y-99751000D01*
%TO.N,RED_INV*%
X138600800Y-104489200D02*
X136446600Y-102335000D01*
X165500000Y-103000000D02*
X160916900Y-103000000D01*
X159427700Y-104489200D02*
X138600800Y-104489200D01*
X160916900Y-103000000D02*
X159427700Y-104489200D01*
%TO.N,GREEN*%
X118844600Y-98516900D02*
X118978300Y-98516900D01*
X117511700Y-99849800D02*
X118844600Y-98516900D01*
X118978300Y-98516900D02*
X124415100Y-93080100D01*
X130798300Y-93080100D02*
X130798300Y-93080000D01*
X117511700Y-100000000D02*
X117511700Y-99849800D01*
X124415100Y-93080100D02*
X130798300Y-93080100D01*
X132000000Y-93080000D02*
X130798300Y-93080000D01*
X116310000Y-100000000D02*
X117511700Y-100000000D01*
%TO.N,GREEN_INV*%
X134418600Y-96836900D02*
X133201700Y-95620000D01*
X170972100Y-93298300D02*
X155638400Y-93298300D01*
X155638400Y-93298300D02*
X154585200Y-94351500D01*
X140998400Y-96836900D02*
X134418600Y-96836900D01*
X173500000Y-95000000D02*
X172298300Y-95000000D01*
X172298300Y-94624500D02*
X170972100Y-93298300D01*
X172298300Y-95000000D02*
X172298300Y-94624500D01*
X143483800Y-94351500D02*
X140998400Y-96836900D01*
X154585200Y-94351500D02*
X143483800Y-94351500D01*
X132000000Y-95620000D02*
X133201700Y-95620000D01*
%TO.N,BLUE*%
X122121700Y-98160000D02*
X120281700Y-100000000D01*
X132000000Y-98160000D02*
X122121700Y-98160000D01*
X119080000Y-100000000D02*
X120281700Y-100000000D01*
%TO.N,BLUE_INV*%
X134471800Y-99429900D02*
X133201700Y-100700000D01*
X162989200Y-98382500D02*
X161941800Y-99429900D01*
X161941800Y-99429900D02*
X134471800Y-99429900D01*
X132000000Y-100700000D02*
X133201700Y-100700000D01*
%TO.N,INTENSITY*%
X135819400Y-101970000D02*
X128731200Y-101970000D01*
X109385000Y-102840000D02*
X110586700Y-102840000D01*
X139620000Y-100700000D02*
X138418300Y-100700000D01*
X128731200Y-101970000D02*
X126654600Y-104046600D01*
X111643100Y-104046600D02*
X110586700Y-102990200D01*
X138418300Y-100700000D02*
X137089400Y-100700000D01*
X137089400Y-100700000D02*
X135819400Y-101970000D01*
X126654600Y-104046600D02*
X111643100Y-104046600D01*
X110586700Y-102990200D02*
X110586700Y-102840000D01*
%TO.N,INTENSITY_INV*%
X172084500Y-101786200D02*
X159424000Y-101786200D01*
X159240200Y-101970000D02*
X142091700Y-101970000D01*
X173298300Y-103000000D02*
X172084500Y-101786200D01*
X142091700Y-101970000D02*
X140821700Y-103240000D01*
X159424000Y-101786200D02*
X159240200Y-101970000D01*
X174500000Y-103000000D02*
X173298300Y-103000000D01*
X139620000Y-103240000D02*
X140821700Y-103240000D01*
%TO.N,HSYNC*%
X145000000Y-88000000D02*
X143798300Y-88000000D01*
X142596600Y-86798300D02*
X143798300Y-88000000D01*
X116237200Y-89787500D02*
X119226400Y-86798300D01*
X119226400Y-86798300D02*
X142596600Y-86798300D01*
%TO.N,VSYNC*%
X142596600Y-91741700D02*
X124761200Y-91741700D01*
X124761200Y-91741700D02*
X118687700Y-97815200D01*
X143798300Y-90540000D02*
X142596600Y-91741700D01*
X145000000Y-90540000D02*
X143798300Y-90540000D01*
%TO.N,CSYNC*%
X145000000Y-93080000D02*
X143798300Y-93080000D01*
X143798300Y-93080000D02*
X141258300Y-95620000D01*
X141258300Y-95620000D02*
X139620000Y-95620000D01*
%TO.N,CSYNC_INV*%
X142091700Y-96890000D02*
X140821700Y-98160000D01*
X170000000Y-94500000D02*
X168798300Y-94500000D01*
X168798300Y-94500000D02*
X166408300Y-96890000D01*
X139620000Y-98160000D02*
X140821700Y-98160000D01*
X166408300Y-96890000D02*
X142091700Y-96890000D01*
%TD*%
M02*
