M48
; DRILL file {KiCad 9.0.7} date 2026-03-11T00:18:50+0200
; FORMAT={-:-/ absolute / metric / decimal}
; #@! TF.CreationDate,2026-03-11T00:18:50+02:00
; #@! TF.GenerationSoftware,Kicad,Pcbnew,9.0.7
; #@! TF.FileFunction,MixedPlating,1,2
FMAT,2
METRIC
; #@! TA.AperFunction,Plated,PTH,ViaDrill
T1C0.300
; #@! TA.AperFunction,Plated,PTH,ComponentDrill
T2C0.800
; #@! TA.AperFunction,Plated,PTH,ComponentDrill
T3C1.000
; #@! TA.AperFunction,Plated,PTH,ComponentDrill
T4C2.200
%
G90
G05
T1
X119.64Y-98.498
X125.148Y-87.218
X140.0Y-105.143
X140.953Y-95.244
X163.764Y-93.072
X169.621Y-98.844
T2
X132.0Y-88.0
X132.0Y-90.54
X132.0Y-93.08
X132.0Y-95.62
X132.0Y-98.16
X132.0Y-100.7
X132.0Y-103.24
X133.0Y-82.0
X135.5Y-82.0
X139.62Y-88.0
X139.62Y-90.54
X139.62Y-93.08
X139.62Y-95.62
X139.62Y-98.16
X139.62Y-100.7
X139.62Y-103.24
X145.0Y-88.0
X145.0Y-90.54
X145.0Y-93.08
X145.0Y-95.62
X145.0Y-98.16
X145.0Y-100.7
X145.0Y-103.24
X146.0Y-82.0
X148.5Y-82.0
X150.0Y-108.0
X152.62Y-88.0
X152.62Y-90.54
X152.62Y-93.08
X152.62Y-95.62
X152.62Y-98.16
X152.62Y-100.7
X152.62Y-103.24
X157.62Y-108.0
T3
X108.0Y-100.0
X109.385Y-102.84
X110.77Y-100.0
X112.155Y-102.84
X113.54Y-100.0
X114.925Y-102.84
X116.31Y-100.0
X117.695Y-102.84
X119.08Y-100.0
X140.0Y-108.0
X142.54Y-108.0
X164.5Y-98.5
X165.5Y-103.0
X166.5Y-95.0
X170.0Y-94.5
X170.0Y-103.0
X173.5Y-95.0
X174.5Y-103.0
X175.5Y-98.5
T4
X102.92Y-101.42
X124.16Y-101.42
X162.5Y-105.5
X177.5Y-105.5
M30
