%TF.GenerationSoftware,KiCad,Pcbnew,9.0.7*%
%TF.CreationDate,2026-03-11T00:11:01+02:00*%
%TF.ProjectId,amstrad-pc1640-pcmm-adapter,616d7374-7261-4642-9d70-63313634302d,rev?*%
%TF.SameCoordinates,Original*%
%TF.FileFunction,Legend,Top*%
%TF.FilePolarity,Positive*%
%FSLAX46Y46*%
G04 Gerber Fmt 4.6, Leading zero omitted, Abs format (unit mm)*
G04 Created by KiCad (PCBNEW 9.0.7) date 2026-03-11 00:11:01*
%MOMM*%
%LPD*%
G01*
G04 APERTURE LIST*
%ADD10C,0.150000*%
G04 APERTURE END LIST*
D10*
X140384398Y-122547342D02*
X140384398Y-121347342D01*
X140384398Y-121347342D02*
X140841541Y-121347342D01*
X140841541Y-121347342D02*
X140955826Y-121404485D01*
X140955826Y-121404485D02*
X141012969Y-121461628D01*
X141012969Y-121461628D02*
X141070112Y-121575914D01*
X141070112Y-121575914D02*
X141070112Y-121747342D01*
X141070112Y-121747342D02*
X141012969Y-121861628D01*
X141012969Y-121861628D02*
X140955826Y-121918771D01*
X140955826Y-121918771D02*
X140841541Y-121975914D01*
X140841541Y-121975914D02*
X140384398Y-121975914D01*
X142270112Y-122433057D02*
X142212969Y-122490200D01*
X142212969Y-122490200D02*
X142041541Y-122547342D01*
X142041541Y-122547342D02*
X141927255Y-122547342D01*
X141927255Y-122547342D02*
X141755826Y-122490200D01*
X141755826Y-122490200D02*
X141641541Y-122375914D01*
X141641541Y-122375914D02*
X141584398Y-122261628D01*
X141584398Y-122261628D02*
X141527255Y-122033057D01*
X141527255Y-122033057D02*
X141527255Y-121861628D01*
X141527255Y-121861628D02*
X141584398Y-121633057D01*
X141584398Y-121633057D02*
X141641541Y-121518771D01*
X141641541Y-121518771D02*
X141755826Y-121404485D01*
X141755826Y-121404485D02*
X141927255Y-121347342D01*
X141927255Y-121347342D02*
X142041541Y-121347342D01*
X142041541Y-121347342D02*
X142212969Y-121404485D01*
X142212969Y-121404485D02*
X142270112Y-121461628D01*
X143412969Y-122547342D02*
X142727255Y-122547342D01*
X143070112Y-122547342D02*
X143070112Y-121347342D01*
X143070112Y-121347342D02*
X142955826Y-121518771D01*
X142955826Y-121518771D02*
X142841541Y-121633057D01*
X142841541Y-121633057D02*
X142727255Y-121690200D01*
X144441541Y-121347342D02*
X144212969Y-121347342D01*
X144212969Y-121347342D02*
X144098683Y-121404485D01*
X144098683Y-121404485D02*
X144041541Y-121461628D01*
X144041541Y-121461628D02*
X143927255Y-121633057D01*
X143927255Y-121633057D02*
X143870112Y-121861628D01*
X143870112Y-121861628D02*
X143870112Y-122318771D01*
X143870112Y-122318771D02*
X143927255Y-122433057D01*
X143927255Y-122433057D02*
X143984398Y-122490200D01*
X143984398Y-122490200D02*
X144098683Y-122547342D01*
X144098683Y-122547342D02*
X144327255Y-122547342D01*
X144327255Y-122547342D02*
X144441541Y-122490200D01*
X144441541Y-122490200D02*
X144498683Y-122433057D01*
X144498683Y-122433057D02*
X144555826Y-122318771D01*
X144555826Y-122318771D02*
X144555826Y-122033057D01*
X144555826Y-122033057D02*
X144498683Y-121918771D01*
X144498683Y-121918771D02*
X144441541Y-121861628D01*
X144441541Y-121861628D02*
X144327255Y-121804485D01*
X144327255Y-121804485D02*
X144098683Y-121804485D01*
X144098683Y-121804485D02*
X143984398Y-121861628D01*
X143984398Y-121861628D02*
X143927255Y-121918771D01*
X143927255Y-121918771D02*
X143870112Y-122033057D01*
X145584398Y-121747342D02*
X145584398Y-122547342D01*
X145298683Y-121290200D02*
X145012969Y-122147342D01*
X145012969Y-122147342D02*
X145755826Y-122147342D01*
X146441540Y-121347342D02*
X146555826Y-121347342D01*
X146555826Y-121347342D02*
X146670112Y-121404485D01*
X146670112Y-121404485D02*
X146727255Y-121461628D01*
X146727255Y-121461628D02*
X146784397Y-121575914D01*
X146784397Y-121575914D02*
X146841540Y-121804485D01*
X146841540Y-121804485D02*
X146841540Y-122090200D01*
X146841540Y-122090200D02*
X146784397Y-122318771D01*
X146784397Y-122318771D02*
X146727255Y-122433057D01*
X146727255Y-122433057D02*
X146670112Y-122490200D01*
X146670112Y-122490200D02*
X146555826Y-122547342D01*
X146555826Y-122547342D02*
X146441540Y-122547342D01*
X146441540Y-122547342D02*
X146327255Y-122490200D01*
X146327255Y-122490200D02*
X146270112Y-122433057D01*
X146270112Y-122433057D02*
X146212969Y-122318771D01*
X146212969Y-122318771D02*
X146155826Y-122090200D01*
X146155826Y-122090200D02*
X146155826Y-121804485D01*
X146155826Y-121804485D02*
X146212969Y-121575914D01*
X146212969Y-121575914D02*
X146270112Y-121461628D01*
X146270112Y-121461628D02*
X146327255Y-121404485D01*
X146327255Y-121404485D02*
X146441540Y-121347342D01*
X147355826Y-122090200D02*
X148270112Y-122090200D01*
X148041540Y-122318771D02*
X148270112Y-122090200D01*
X148270112Y-122090200D02*
X148041540Y-121861628D01*
X148841540Y-122547342D02*
X148841540Y-121347342D01*
X148841540Y-121347342D02*
X149298683Y-121347342D01*
X149298683Y-121347342D02*
X149412968Y-121404485D01*
X149412968Y-121404485D02*
X149470111Y-121461628D01*
X149470111Y-121461628D02*
X149527254Y-121575914D01*
X149527254Y-121575914D02*
X149527254Y-121747342D01*
X149527254Y-121747342D02*
X149470111Y-121861628D01*
X149470111Y-121861628D02*
X149412968Y-121918771D01*
X149412968Y-121918771D02*
X149298683Y-121975914D01*
X149298683Y-121975914D02*
X148841540Y-121975914D01*
X150727254Y-122433057D02*
X150670111Y-122490200D01*
X150670111Y-122490200D02*
X150498683Y-122547342D01*
X150498683Y-122547342D02*
X150384397Y-122547342D01*
X150384397Y-122547342D02*
X150212968Y-122490200D01*
X150212968Y-122490200D02*
X150098683Y-122375914D01*
X150098683Y-122375914D02*
X150041540Y-122261628D01*
X150041540Y-122261628D02*
X149984397Y-122033057D01*
X149984397Y-122033057D02*
X149984397Y-121861628D01*
X149984397Y-121861628D02*
X150041540Y-121633057D01*
X150041540Y-121633057D02*
X150098683Y-121518771D01*
X150098683Y-121518771D02*
X150212968Y-121404485D01*
X150212968Y-121404485D02*
X150384397Y-121347342D01*
X150384397Y-121347342D02*
X150498683Y-121347342D01*
X150498683Y-121347342D02*
X150670111Y-121404485D01*
X150670111Y-121404485D02*
X150727254Y-121461628D01*
X151241540Y-122090200D02*
X152155826Y-122090200D01*
X152727254Y-122547342D02*
X152727254Y-121347342D01*
X152727254Y-121347342D02*
X153127254Y-122204485D01*
X153127254Y-122204485D02*
X153527254Y-121347342D01*
X153527254Y-121347342D02*
X153527254Y-122547342D01*
X154098683Y-122547342D02*
X154098683Y-121347342D01*
X154098683Y-121347342D02*
X154498683Y-122204485D01*
X154498683Y-122204485D02*
X154898683Y-121347342D01*
X154898683Y-121347342D02*
X154898683Y-122547342D01*
X156327255Y-122204485D02*
X156898684Y-122204485D01*
X156212969Y-122547342D02*
X156612969Y-121347342D01*
X156612969Y-121347342D02*
X157012969Y-122547342D01*
X157927255Y-122547342D02*
X157927255Y-121347342D01*
X157927255Y-122490200D02*
X157812969Y-122547342D01*
X157812969Y-122547342D02*
X157584397Y-122547342D01*
X157584397Y-122547342D02*
X157470112Y-122490200D01*
X157470112Y-122490200D02*
X157412969Y-122433057D01*
X157412969Y-122433057D02*
X157355826Y-122318771D01*
X157355826Y-122318771D02*
X157355826Y-121975914D01*
X157355826Y-121975914D02*
X157412969Y-121861628D01*
X157412969Y-121861628D02*
X157470112Y-121804485D01*
X157470112Y-121804485D02*
X157584397Y-121747342D01*
X157584397Y-121747342D02*
X157812969Y-121747342D01*
X157812969Y-121747342D02*
X157927255Y-121804485D01*
X159012969Y-122547342D02*
X159012969Y-121918771D01*
X159012969Y-121918771D02*
X158955826Y-121804485D01*
X158955826Y-121804485D02*
X158841540Y-121747342D01*
X158841540Y-121747342D02*
X158612969Y-121747342D01*
X158612969Y-121747342D02*
X158498683Y-121804485D01*
X159012969Y-122490200D02*
X158898683Y-122547342D01*
X158898683Y-122547342D02*
X158612969Y-122547342D01*
X158612969Y-122547342D02*
X158498683Y-122490200D01*
X158498683Y-122490200D02*
X158441540Y-122375914D01*
X158441540Y-122375914D02*
X158441540Y-122261628D01*
X158441540Y-122261628D02*
X158498683Y-122147342D01*
X158498683Y-122147342D02*
X158612969Y-122090200D01*
X158612969Y-122090200D02*
X158898683Y-122090200D01*
X158898683Y-122090200D02*
X159012969Y-122033057D01*
X159584397Y-121747342D02*
X159584397Y-122947342D01*
X159584397Y-121804485D02*
X159698683Y-121747342D01*
X159698683Y-121747342D02*
X159927254Y-121747342D01*
X159927254Y-121747342D02*
X160041540Y-121804485D01*
X160041540Y-121804485D02*
X160098683Y-121861628D01*
X160098683Y-121861628D02*
X160155825Y-121975914D01*
X160155825Y-121975914D02*
X160155825Y-122318771D01*
X160155825Y-122318771D02*
X160098683Y-122433057D01*
X160098683Y-122433057D02*
X160041540Y-122490200D01*
X160041540Y-122490200D02*
X159927254Y-122547342D01*
X159927254Y-122547342D02*
X159698683Y-122547342D01*
X159698683Y-122547342D02*
X159584397Y-122490200D01*
X160498682Y-121747342D02*
X160955825Y-121747342D01*
X160670111Y-121347342D02*
X160670111Y-122375914D01*
X160670111Y-122375914D02*
X160727254Y-122490200D01*
X160727254Y-122490200D02*
X160841539Y-122547342D01*
X160841539Y-122547342D02*
X160955825Y-122547342D01*
X161812968Y-122490200D02*
X161698682Y-122547342D01*
X161698682Y-122547342D02*
X161470111Y-122547342D01*
X161470111Y-122547342D02*
X161355825Y-122490200D01*
X161355825Y-122490200D02*
X161298682Y-122375914D01*
X161298682Y-122375914D02*
X161298682Y-121918771D01*
X161298682Y-121918771D02*
X161355825Y-121804485D01*
X161355825Y-121804485D02*
X161470111Y-121747342D01*
X161470111Y-121747342D02*
X161698682Y-121747342D01*
X161698682Y-121747342D02*
X161812968Y-121804485D01*
X161812968Y-121804485D02*
X161870111Y-121918771D01*
X161870111Y-121918771D02*
X161870111Y-122033057D01*
X161870111Y-122033057D02*
X161298682Y-122147342D01*
X162384396Y-122547342D02*
X162384396Y-121747342D01*
X162384396Y-121975914D02*
X162441539Y-121861628D01*
X162441539Y-121861628D02*
X162498682Y-121804485D01*
X162498682Y-121804485D02*
X162612967Y-121747342D01*
X162612967Y-121747342D02*
X162727253Y-121747342D01*
X163927253Y-121747342D02*
X164212967Y-122547342D01*
X164212967Y-122547342D02*
X164498682Y-121747342D01*
X165584396Y-122547342D02*
X164898682Y-122547342D01*
X165241539Y-122547342D02*
X165241539Y-121347342D01*
X165241539Y-121347342D02*
X165127253Y-121518771D01*
X165127253Y-121518771D02*
X165012968Y-121633057D01*
X165012968Y-121633057D02*
X164898682Y-121690200D01*
X166098682Y-122433057D02*
X166155825Y-122490200D01*
X166155825Y-122490200D02*
X166098682Y-122547342D01*
X166098682Y-122547342D02*
X166041539Y-122490200D01*
X166041539Y-122490200D02*
X166098682Y-122433057D01*
X166098682Y-122433057D02*
X166098682Y-122547342D01*
X166898682Y-121347342D02*
X167012968Y-121347342D01*
X167012968Y-121347342D02*
X167127254Y-121404485D01*
X167127254Y-121404485D02*
X167184397Y-121461628D01*
X167184397Y-121461628D02*
X167241539Y-121575914D01*
X167241539Y-121575914D02*
X167298682Y-121804485D01*
X167298682Y-121804485D02*
X167298682Y-122090200D01*
X167298682Y-122090200D02*
X167241539Y-122318771D01*
X167241539Y-122318771D02*
X167184397Y-122433057D01*
X167184397Y-122433057D02*
X167127254Y-122490200D01*
X167127254Y-122490200D02*
X167012968Y-122547342D01*
X167012968Y-122547342D02*
X166898682Y-122547342D01*
X166898682Y-122547342D02*
X166784397Y-122490200D01*
X166784397Y-122490200D02*
X166727254Y-122433057D01*
X166727254Y-122433057D02*
X166670111Y-122318771D01*
X166670111Y-122318771D02*
X166612968Y-122090200D01*
X166612968Y-122090200D02*
X166612968Y-121804485D01*
X166612968Y-121804485D02*
X166670111Y-121575914D01*
X166670111Y-121575914D02*
X166727254Y-121461628D01*
X166727254Y-121461628D02*
X166784397Y-121404485D01*
X166784397Y-121404485D02*
X166898682Y-121347342D01*
M02*
