%TF.GenerationSoftware,KiCad,Pcbnew,9.0.7*%
%TF.CreationDate,2026-03-11T00:18:49+02:00*%
%TF.ProjectId,amstrad-pc1640-pcmm-adapter,616d7374-7261-4642-9d70-63313634302d,rev?*%
%TF.SameCoordinates,Original*%
%TF.FileFunction,Soldermask,Top*%
%TF.FilePolarity,Negative*%
%FSLAX46Y46*%
G04 Gerber Fmt 4.6, Leading zero omitted, Abs format (unit mm)*
G04 Created by KiCad (PCBNEW 9.0.7) date 2026-03-11 00:18:49*
%MOMM*%
%LPD*%
G01*
G04 APERTURE LIST*
%ADD10R,1.600000X1.600000*%
%ADD11O,1.600000X1.600000*%
%ADD12O,3.000000X3.000000*%
%ADD13R,1.700000X1.700000*%
%ADD14O,1.700000X1.700000*%
G04 APERTURE END LIST*
D10*
%TO.C,J2*%
X170000000Y-94500000D03*
D11*
X174500000Y-103000000D03*
X170000000Y-103000000D03*
X175500000Y-98500000D03*
X173500000Y-95000000D03*
X166500000Y-95000000D03*
X164500000Y-98500000D03*
X165500000Y-103000000D03*
D12*
X162500000Y-105500000D03*
X177500000Y-105500000D03*
%TD*%
D10*
%TO.C,R1*%
X150000000Y-108000000D03*
D11*
X157620000Y-108000000D03*
%TD*%
D10*
%TO.C,C1*%
X133000000Y-82000000D03*
D11*
X135500000Y-82000000D03*
%TD*%
D10*
%TO.C,C2*%
X146000000Y-82000000D03*
D11*
X148500000Y-82000000D03*
%TD*%
D10*
%TO.C,U2*%
X145000000Y-88000000D03*
D11*
X145000000Y-90540000D03*
X145000000Y-93080000D03*
X145000000Y-95620000D03*
X145000000Y-98160000D03*
X145000000Y-100700000D03*
X145000000Y-103240000D03*
X152620000Y-103240000D03*
X152620000Y-100700000D03*
X152620000Y-98160000D03*
X152620000Y-95620000D03*
X152620000Y-93080000D03*
X152620000Y-90540000D03*
X152620000Y-88000000D03*
%TD*%
D10*
%TO.C,J1*%
X108000000Y-100000000D03*
D11*
X110770000Y-100000000D03*
X113540000Y-100000000D03*
X116310000Y-100000000D03*
X119080000Y-100000000D03*
X109385000Y-102840000D03*
X112155000Y-102840000D03*
X114925000Y-102840000D03*
X117695000Y-102840000D03*
D12*
X102920000Y-101420000D03*
X124160000Y-101420000D03*
%TD*%
D10*
%TO.C,U1*%
X132000000Y-88000000D03*
D11*
X132000000Y-90540000D03*
X132000000Y-93080000D03*
X132000000Y-95620000D03*
X132000000Y-98160000D03*
X132000000Y-100700000D03*
X132000000Y-103240000D03*
X139620000Y-103240000D03*
X139620000Y-100700000D03*
X139620000Y-98160000D03*
X139620000Y-95620000D03*
X139620000Y-93080000D03*
X139620000Y-90540000D03*
X139620000Y-88000000D03*
%TD*%
D13*
%TO.C,J3*%
X140000000Y-108000000D03*
D14*
X142540000Y-108000000D03*
%TD*%
M02*
