%TF.GenerationSoftware,KiCad,Pcbnew,9.0.7*%
%TF.CreationDate,2026-03-11T00:30:47+02:00*%
%TF.ProjectId,amstrad-pc1640-pcmm-adapter,616d7374-7261-4642-9d70-63313634302d,rev?*%
%TF.SameCoordinates,Original*%
%TF.FileFunction,Legend,Top*%
%TF.FilePolarity,Positive*%
%FSLAX46Y46*%
G04 Gerber Fmt 4.6, Leading zero omitted, Abs format (unit mm)*
G04 Created by KiCad (PCBNEW 9.0.7) date 2026-03-11 00:30:47*
%MOMM*%
%LPD*%
G01*
G04 APERTURE LIST*
%ADD10C,0.150000*%
G04 APERTURE END LIST*
D10*
X140384398Y-109547342D02*
X140384398Y-108347342D01*
X140384398Y-108347342D02*
X140841541Y-108347342D01*
X140841541Y-108347342D02*
X140955826Y-108404485D01*
X140955826Y-108404485D02*
X141012969Y-108461628D01*
X141012969Y-108461628D02*
X141070112Y-108575914D01*
X141070112Y-108575914D02*
X141070112Y-108747342D01*
X141070112Y-108747342D02*
X141012969Y-108861628D01*
X141012969Y-108861628D02*
X140955826Y-108918771D01*
X140955826Y-108918771D02*
X140841541Y-108975914D01*
X140841541Y-108975914D02*
X140384398Y-108975914D01*
X142270112Y-109433057D02*
X142212969Y-109490200D01*
X142212969Y-109490200D02*
X142041541Y-109547342D01*
X142041541Y-109547342D02*
X141927255Y-109547342D01*
X141927255Y-109547342D02*
X141755826Y-109490200D01*
X141755826Y-109490200D02*
X141641541Y-109375914D01*
X141641541Y-109375914D02*
X141584398Y-109261628D01*
X141584398Y-109261628D02*
X141527255Y-109033057D01*
X141527255Y-109033057D02*
X141527255Y-108861628D01*
X141527255Y-108861628D02*
X141584398Y-108633057D01*
X141584398Y-108633057D02*
X141641541Y-108518771D01*
X141641541Y-108518771D02*
X141755826Y-108404485D01*
X141755826Y-108404485D02*
X141927255Y-108347342D01*
X141927255Y-108347342D02*
X142041541Y-108347342D01*
X142041541Y-108347342D02*
X142212969Y-108404485D01*
X142212969Y-108404485D02*
X142270112Y-108461628D01*
X143412969Y-109547342D02*
X142727255Y-109547342D01*
X143070112Y-109547342D02*
X143070112Y-108347342D01*
X143070112Y-108347342D02*
X142955826Y-108518771D01*
X142955826Y-108518771D02*
X142841541Y-108633057D01*
X142841541Y-108633057D02*
X142727255Y-108690200D01*
X144441541Y-108347342D02*
X144212969Y-108347342D01*
X144212969Y-108347342D02*
X144098683Y-108404485D01*
X144098683Y-108404485D02*
X144041541Y-108461628D01*
X144041541Y-108461628D02*
X143927255Y-108633057D01*
X143927255Y-108633057D02*
X143870112Y-108861628D01*
X143870112Y-108861628D02*
X143870112Y-109318771D01*
X143870112Y-109318771D02*
X143927255Y-109433057D01*
X143927255Y-109433057D02*
X143984398Y-109490200D01*
X143984398Y-109490200D02*
X144098683Y-109547342D01*
X144098683Y-109547342D02*
X144327255Y-109547342D01*
X144327255Y-109547342D02*
X144441541Y-109490200D01*
X144441541Y-109490200D02*
X144498683Y-109433057D01*
X144498683Y-109433057D02*
X144555826Y-109318771D01*
X144555826Y-109318771D02*
X144555826Y-109033057D01*
X144555826Y-109033057D02*
X144498683Y-108918771D01*
X144498683Y-108918771D02*
X144441541Y-108861628D01*
X144441541Y-108861628D02*
X144327255Y-108804485D01*
X144327255Y-108804485D02*
X144098683Y-108804485D01*
X144098683Y-108804485D02*
X143984398Y-108861628D01*
X143984398Y-108861628D02*
X143927255Y-108918771D01*
X143927255Y-108918771D02*
X143870112Y-109033057D01*
X145584398Y-108747342D02*
X145584398Y-109547342D01*
X145298683Y-108290200D02*
X145012969Y-109147342D01*
X145012969Y-109147342D02*
X145755826Y-109147342D01*
X146441540Y-108347342D02*
X146555826Y-108347342D01*
X146555826Y-108347342D02*
X146670112Y-108404485D01*
X146670112Y-108404485D02*
X146727255Y-108461628D01*
X146727255Y-108461628D02*
X146784397Y-108575914D01*
X146784397Y-108575914D02*
X146841540Y-108804485D01*
X146841540Y-108804485D02*
X146841540Y-109090200D01*
X146841540Y-109090200D02*
X146784397Y-109318771D01*
X146784397Y-109318771D02*
X146727255Y-109433057D01*
X146727255Y-109433057D02*
X146670112Y-109490200D01*
X146670112Y-109490200D02*
X146555826Y-109547342D01*
X146555826Y-109547342D02*
X146441540Y-109547342D01*
X146441540Y-109547342D02*
X146327255Y-109490200D01*
X146327255Y-109490200D02*
X146270112Y-109433057D01*
X146270112Y-109433057D02*
X146212969Y-109318771D01*
X146212969Y-109318771D02*
X146155826Y-109090200D01*
X146155826Y-109090200D02*
X146155826Y-108804485D01*
X146155826Y-108804485D02*
X146212969Y-108575914D01*
X146212969Y-108575914D02*
X146270112Y-108461628D01*
X146270112Y-108461628D02*
X146327255Y-108404485D01*
X146327255Y-108404485D02*
X146441540Y-108347342D01*
X147355826Y-109090200D02*
X148270112Y-109090200D01*
X148041540Y-109318771D02*
X148270112Y-109090200D01*
X148270112Y-109090200D02*
X148041540Y-108861628D01*
X148841540Y-109547342D02*
X148841540Y-108347342D01*
X148841540Y-108347342D02*
X149298683Y-108347342D01*
X149298683Y-108347342D02*
X149412968Y-108404485D01*
X149412968Y-108404485D02*
X149470111Y-108461628D01*
X149470111Y-108461628D02*
X149527254Y-108575914D01*
X149527254Y-108575914D02*
X149527254Y-108747342D01*
X149527254Y-108747342D02*
X149470111Y-108861628D01*
X149470111Y-108861628D02*
X149412968Y-108918771D01*
X149412968Y-108918771D02*
X149298683Y-108975914D01*
X149298683Y-108975914D02*
X148841540Y-108975914D01*
X150727254Y-109433057D02*
X150670111Y-109490200D01*
X150670111Y-109490200D02*
X150498683Y-109547342D01*
X150498683Y-109547342D02*
X150384397Y-109547342D01*
X150384397Y-109547342D02*
X150212968Y-109490200D01*
X150212968Y-109490200D02*
X150098683Y-109375914D01*
X150098683Y-109375914D02*
X150041540Y-109261628D01*
X150041540Y-109261628D02*
X149984397Y-109033057D01*
X149984397Y-109033057D02*
X149984397Y-108861628D01*
X149984397Y-108861628D02*
X150041540Y-108633057D01*
X150041540Y-108633057D02*
X150098683Y-108518771D01*
X150098683Y-108518771D02*
X150212968Y-108404485D01*
X150212968Y-108404485D02*
X150384397Y-108347342D01*
X150384397Y-108347342D02*
X150498683Y-108347342D01*
X150498683Y-108347342D02*
X150670111Y-108404485D01*
X150670111Y-108404485D02*
X150727254Y-108461628D01*
X151241540Y-109090200D02*
X152155826Y-109090200D01*
X152727254Y-109547342D02*
X152727254Y-108347342D01*
X152727254Y-108347342D02*
X153127254Y-109204485D01*
X153127254Y-109204485D02*
X153527254Y-108347342D01*
X153527254Y-108347342D02*
X153527254Y-109547342D01*
X154098683Y-109547342D02*
X154098683Y-108347342D01*
X154098683Y-108347342D02*
X154498683Y-109204485D01*
X154498683Y-109204485D02*
X154898683Y-108347342D01*
X154898683Y-108347342D02*
X154898683Y-109547342D01*
X156327255Y-109204485D02*
X156898684Y-109204485D01*
X156212969Y-109547342D02*
X156612969Y-108347342D01*
X156612969Y-108347342D02*
X157012969Y-109547342D01*
X157927255Y-109547342D02*
X157927255Y-108347342D01*
X157927255Y-109490200D02*
X157812969Y-109547342D01*
X157812969Y-109547342D02*
X157584397Y-109547342D01*
X157584397Y-109547342D02*
X157470112Y-109490200D01*
X157470112Y-109490200D02*
X157412969Y-109433057D01*
X157412969Y-109433057D02*
X157355826Y-109318771D01*
X157355826Y-109318771D02*
X157355826Y-108975914D01*
X157355826Y-108975914D02*
X157412969Y-108861628D01*
X157412969Y-108861628D02*
X157470112Y-108804485D01*
X157470112Y-108804485D02*
X157584397Y-108747342D01*
X157584397Y-108747342D02*
X157812969Y-108747342D01*
X157812969Y-108747342D02*
X157927255Y-108804485D01*
X159012969Y-109547342D02*
X159012969Y-108918771D01*
X159012969Y-108918771D02*
X158955826Y-108804485D01*
X158955826Y-108804485D02*
X158841540Y-108747342D01*
X158841540Y-108747342D02*
X158612969Y-108747342D01*
X158612969Y-108747342D02*
X158498683Y-108804485D01*
X159012969Y-109490200D02*
X158898683Y-109547342D01*
X158898683Y-109547342D02*
X158612969Y-109547342D01*
X158612969Y-109547342D02*
X158498683Y-109490200D01*
X158498683Y-109490200D02*
X158441540Y-109375914D01*
X158441540Y-109375914D02*
X158441540Y-109261628D01*
X158441540Y-109261628D02*
X158498683Y-109147342D01*
X158498683Y-109147342D02*
X158612969Y-109090200D01*
X158612969Y-109090200D02*
X158898683Y-109090200D01*
X158898683Y-109090200D02*
X159012969Y-109033057D01*
X159584397Y-108747342D02*
X159584397Y-109947342D01*
X159584397Y-108804485D02*
X159698683Y-108747342D01*
X159698683Y-108747342D02*
X159927254Y-108747342D01*
X159927254Y-108747342D02*
X160041540Y-108804485D01*
X160041540Y-108804485D02*
X160098683Y-108861628D01*
X160098683Y-108861628D02*
X160155825Y-108975914D01*
X160155825Y-108975914D02*
X160155825Y-109318771D01*
X160155825Y-109318771D02*
X160098683Y-109433057D01*
X160098683Y-109433057D02*
X160041540Y-109490200D01*
X160041540Y-109490200D02*
X159927254Y-109547342D01*
X159927254Y-109547342D02*
X159698683Y-109547342D01*
X159698683Y-109547342D02*
X159584397Y-109490200D01*
X160498682Y-108747342D02*
X160955825Y-108747342D01*
X160670111Y-108347342D02*
X160670111Y-109375914D01*
X160670111Y-109375914D02*
X160727254Y-109490200D01*
X160727254Y-109490200D02*
X160841539Y-109547342D01*
X160841539Y-109547342D02*
X160955825Y-109547342D01*
X161812968Y-109490200D02*
X161698682Y-109547342D01*
X161698682Y-109547342D02*
X161470111Y-109547342D01*
X161470111Y-109547342D02*
X161355825Y-109490200D01*
X161355825Y-109490200D02*
X161298682Y-109375914D01*
X161298682Y-109375914D02*
X161298682Y-108918771D01*
X161298682Y-108918771D02*
X161355825Y-108804485D01*
X161355825Y-108804485D02*
X161470111Y-108747342D01*
X161470111Y-108747342D02*
X161698682Y-108747342D01*
X161698682Y-108747342D02*
X161812968Y-108804485D01*
X161812968Y-108804485D02*
X161870111Y-108918771D01*
X161870111Y-108918771D02*
X161870111Y-109033057D01*
X161870111Y-109033057D02*
X161298682Y-109147342D01*
X162384396Y-109547342D02*
X162384396Y-108747342D01*
X162384396Y-108975914D02*
X162441539Y-108861628D01*
X162441539Y-108861628D02*
X162498682Y-108804485D01*
X162498682Y-108804485D02*
X162612967Y-108747342D01*
X162612967Y-108747342D02*
X162727253Y-108747342D01*
X163927253Y-108747342D02*
X164212967Y-109547342D01*
X164212967Y-109547342D02*
X164498682Y-108747342D01*
X165584396Y-109547342D02*
X164898682Y-109547342D01*
X165241539Y-109547342D02*
X165241539Y-108347342D01*
X165241539Y-108347342D02*
X165127253Y-108518771D01*
X165127253Y-108518771D02*
X165012968Y-108633057D01*
X165012968Y-108633057D02*
X164898682Y-108690200D01*
X166098682Y-109433057D02*
X166155825Y-109490200D01*
X166155825Y-109490200D02*
X166098682Y-109547342D01*
X166098682Y-109547342D02*
X166041539Y-109490200D01*
X166041539Y-109490200D02*
X166098682Y-109433057D01*
X166098682Y-109433057D02*
X166098682Y-109547342D01*
X166898682Y-108347342D02*
X167012968Y-108347342D01*
X167012968Y-108347342D02*
X167127254Y-108404485D01*
X167127254Y-108404485D02*
X167184397Y-108461628D01*
X167184397Y-108461628D02*
X167241539Y-108575914D01*
X167241539Y-108575914D02*
X167298682Y-108804485D01*
X167298682Y-108804485D02*
X167298682Y-109090200D01*
X167298682Y-109090200D02*
X167241539Y-109318771D01*
X167241539Y-109318771D02*
X167184397Y-109433057D01*
X167184397Y-109433057D02*
X167127254Y-109490200D01*
X167127254Y-109490200D02*
X167012968Y-109547342D01*
X167012968Y-109547342D02*
X166898682Y-109547342D01*
X166898682Y-109547342D02*
X166784397Y-109490200D01*
X166784397Y-109490200D02*
X166727254Y-109433057D01*
X166727254Y-109433057D02*
X166670111Y-109318771D01*
X166670111Y-109318771D02*
X166612968Y-109090200D01*
X166612968Y-109090200D02*
X166612968Y-108804485D01*
X166612968Y-108804485D02*
X166670111Y-108575914D01*
X166670111Y-108575914D02*
X166727254Y-108461628D01*
X166727254Y-108461628D02*
X166784397Y-108404485D01*
X166784397Y-108404485D02*
X166898682Y-108347342D01*
M02*
